<svg xmlns="http://www.w3.org/2000/svg" id="Layer_1" viewBox="0 0 307 241" xmlns:xlink="http://www.w3.org/1999/xlink"><defs><style>.st39{fill:#602228}.st73{fill:#833b2c}.st87{fill:#812d28}.st100{fill:#822e28}.st102{fill:#d19172}.st138{fill:#fce7d0}.st164{fill:#e89077}.st166{fill:#681825}.st228{fill:#61131d}.st278{fill:#69272c}.st280{fill:#5d1520}.st310{fill:#833b2d}.st329{fill:#994d37}.st332{fill:#65262b}.st333{fill:#5c1e28}.st348{fill:#5d1c2b}.st350{fill:#fde8d1}.st356{fill:#fde9d1}.st459{fill:#ad5b3c}.st472{fill:#822e27}.st482{fill:#978486}</style></defs><path d="M307 192v8l-46 5h-5l-21-9-1-1h2l62-6h1z" style="fill:#b0a4a6"/><path d="M307 220v2h-24l-1 19h-2l1-10v-9h-13v4l-1 1h1l-1 11v1l-1-1v-16h-1v19h-2v-19H54v19h-1v-2l-1-17h-1v19h-1l-1-14 1-1h-1v-4H36v6h1v13h-1l-1-19H8l-8-1h76l8-1 18 1h12l10-1h58l30 1h66l28-1z" style="fill:#5c1520"/><path d="M307 222v19h-26l1-19z" style="fill:#9a4f38"/><path d="M79 213h2a569 569 0 0 0 72 0h116l20-1v1l2-1h16v2H177l-13 1H88l-7-1H52l-24 1-21-1H0v-1l61-1 16 1z" style="fill:#60171f"/><path d="M307 186v1l-6-1-6-1-74 7 35 15h3l48-5v2l-44 5-8-1-30-12 30 13 8 1 44-5v2l-42 4q-6 2-11-1l-31-15v-1l-2-1-1-2 1-2 10-1 15-1 16-1 13-1 18-1 2-1h3l3 1z" style="fill:#551624"/><path d="m223 195 1 2 3 2 8 3 8 4 11 4 5 1h8l31-4 9-1v2l-9 1-27 4h-19l-5-3-27-1-21 1-12-1 10-1h21l26 1-11-5h-26l-4-1h-1l15 1 14-1-7-3-5-3h-6v-1q-1 1 0 0l8-1z" style="fill:#b86045"/><path d="m307 187-9-2v-1l-1 1-13 1-57 4h-2v1l6 3 25 11 5 1 15-2v-1l31-3v1l-41 5-6 1-4-1-21-9-14-6v-1l1-1 14-1 33-2 22-2h8z" style="fill:#c0acb1"/><path d="m298 185-1 1 9 3v2l-10-3-64 5 1 1h1l7 4 14 5 5 1 26-3 20-2v1l-8 1-23 3-17 1h-4l-24-11-6-3-1-1h3l3 2 67-6z" style="fill:#531926"/><path d="m307 204-14 2-16 1-13 2-9-1-30-13-1-1 9 4 16 6 6 3 3 1h5l21-3z" style="fill:#7c6a75"/><path d="m307 191-6-2h-4l-13 1-25 2-23 2h-1l-3-1 5-1 30-2 30-3z" style="fill:#7f747c"/><path d="M307 208v4h-14l-4 1h-20l2-1h4l12-1 11-2z" style="fill:#df8f62"/><path d="M307 188v2l-9-2v-2h2z" style="fill:#81767f"/><path d="M307 212h-18l4-1h14" style="fill:#faae7e"/><path d="M258 226h2v15h-58l-1-2c1-2 0-9-2-10h-17v-1h-4v1h-3v-1h-11v1h-3v-1h-27l-1 1h-14l-3 1v2q-1 0 0 0v5l-1 1v1l1 1v1H56v-4l1-1v-5h-1l1-5 1 1h3v-1h2l2 1h28l22-1 2 1h68l1-1v1h14v-1zm-57 15h-84v-9q-1-2 1-2l15-1 66 1 1 3z" style="fill:#994e37"/><path d="M36 241H0v-20l8 1h27v4l1 9z" style="fill:#9a4e38"/><path d="M281 226v5l-1 10h-13v-14l1-1h6v3-2h1l1-1z" style="fill:#9c5038"/><path d="M50 226v15H39v-15z" style="fill:#9d5039"/><path d="M164 228h23l4 1h7l2 1 2 7v4h-1v-6l-2-4-1-1h-55l-26 1v10h-1v-9q-1 0 0 0v-2l1-1h34l10-1z" style="fill:#591520"/><path d="m27 188-27-1v-4h26z" style="fill:#db8c5e"/><path d="M79 213H31l-14 1-9-1H0l4-1h69z" style="fill:#f9ad7a"/><path d="m50 226-6 1v2h-1v-2h-3v14l-1-14h-1l-1 1v-6h14z" style="fill:#7d3427"/><path d="M59 227h-2v14h-3v-2h1l-1-3v-6l1 1 1-1v-1l-1-1-1 1v-2l2 1v-1h-1l-1-1v-3h3v1l-1 1h1l1 1v-1 1z" class="st73"/><path d="M53 241h-2v-19h2z" style="fill:#82362b"/><path d="M39 241h-2l-1-13v-1h2l1 7z" style="fill:#a0513b"/><path d="M267 239v1h-2v-19h1v15z" style="fill:#883b2f"/><path d="M280 182h-7z" style="fill:#998486"/><path d="M272 182h-6z" style="fill:#a08b8c"/><path d="M158 0h-3z" class="st482"/><path d="M261 182h-4z" style="fill:#b09c9d"/><path d="M284 182h-4z" style="fill:#b2a0a1"/><path d="M292 182h-4z" style="fill:#b09d9f"/><path d="M154 0h-3z" class="st482"/><path d="M253 182h-3z" style="fill:#b7a5a6"/><path d="M245 182h-2z" style="fill:#b6a6a6"/><path d="M175 44h-2z" style="fill:#c7abad"/><path d="M307 214v3h-18 18v3l-246 1H0v-7z" style="fill:#a0533d"/><path d="m307 217-17-1h-6l-5 1v-1l9-1h16z" style="fill:#87392b"/><path d="m245 218-18-1-19 1-12 1h-1 3l9-2h24l24 1h9l3 1q2-1 0 0h-10z" style="fill:#843627"/><path d="m158 217 13 1 23-2h10l-12 1q-16 3-34 1" style="fill:#843729"/><path d="M30 218h-3v-1l14-1h17l-5 1z" style="fill:#85382a"/><path d="M281 226h-5l-1 1h-1v4-4h-7v-5h14zm0 5v-2z" style="fill:#843c2e"/><path d="m213 197-1 1-3 2-3-1-6-1q-2-1-1-2l-3-1-1 1v-2h1l2 1v-1l1 2q2 2 4 1h2q2 3 4 2l3-2z" style="fill:#bf664b"/><path d="M292 183h15v3l-8-2h-4l-75 6q-1 3 3 4v1h-1l-6 1h-3l-1-1-3-2h-3q-2 1-3-1h-1l-4 3v1h-3v-1l-1-1-1-2-2-1q-2-1 0-1 3 1 4-1 2-2 0-4l1-2z" style="fill:#dc8c5d"/><path d="M225 187h-22 19l12-1 1 1z" style="fill:#af5e3e"/><path d="M299 183h-6z" class="st39"/><path d="M186 201v2h4v-1h1v1l-3 1h-6l-3-2h5v-1z" style="fill:#bb6248"/><path d="m298 185-1 1v1l-20 2-36 3-11 1-4-2h3l14-1 21-2 20-2z" style="fill:#7f757c"/><path d="m231 195 7 3 16 7 5 1h6l11-1h-3l-12 2-7-1-10-5z" style="fill:#e7ddde"/><path d="m87 207 1-1H68zl-4 1-8 1-12 1-15-1-12-1h-4l-18-1-7-1H4v-1l1-2 24-2h1-7l-10 2-7 1-1 1 5 1 7 1h14l-3-2v-1l6-2 5-1q9 6 19 5l13-2 8-4v1l6 1q4 0 6 3l-2 1h9l11 1h6l12 1h-11l-6-1z" style="fill:#b66045"/><path d="M87 207H64l1-1h24z" style="fill:#994330"/><path d="M75 226h39v1H75h1-1l-1 1-1-1h1-7v1l-1-1h-1l-2-1zm41 14-1-2v-6h1zm35-12h-9v-1h9" class="st329"/><path d="m161 228-10 1v-1zm14 0h-9zm-33 0h-8v-1zm54 1h-5z" class="st310"/><path d="M57 236v-5zm2-9h2zh-1z" class="st329"/><path d="M182 228h-4v-1z" class="st310"/><path d="M166 228h-2zm-39 1h-2l1-1z" class="st329"/><path d="M131 229h-2z" class="st310"/><path d="M120 229h-1zm4 0h-1zm10-1h-1zm-5 1h-1zm-13 1" class="st329"/><path d="M177 222q3 0 0 1-2-1 0 1h1q-2-1 1-1 2 0 1 1v1l2-1h1l1-1h5q1 1-1 1h3l2-1v1l1 1 1-1 1-1 1 1h1l-1 1v-1 1h3q2-1 2 1v-2h2l1 1h2v-1h1l1 1h3v-1q2-2 2 1h1l1-1 2 1q1-2 1 0h1v-1h2q1 1 0 0l1 1v-1h2l1 1q0-3 1-1l1-1h3l3 1h3l1 1v-1q1-2 1 1h1l2 1h1v-1l4-1 1 1 1 1 1-1 2 1q2-2 3 0 0-2 1-1h1l1 1h-53l-5 1h-4l-10-1-1 1h-50v-1h-12l-1-1v1h-14q0 2 0 0H87q0 1 0 0h-5l-3-1v1h-4q0 1 0 0H59v1l-1-1h-1l-1-1v-2h-2l1 3q2 1 1 2v2h-2v2l1 2v6l-1 1v-19h112z" class="st310"/><path d="M135 226h51l-1 1h-20l1 1h-1v-1l-1 1-1-1q1 0 0 0h-17l-1 1v-1h-28v-1z" class="st329"/><path d="M135 226h-17l-1 1h-3l-6-1h3q1 0 0 0v-1l2 1h9l-1-1 1-1 1 1-1 1h10v-1q2 2 3 1m-60 0H59h5l3-1v1h6v-1h1z" class="st73"/><path d="M200 227h-12l-2-1h13z" class="st329"/><path d="M108 226H89h11l2-1v1l2-1 2 1zm-21 0H75h4v-1h1l2 1zm24-3h-2 3m10 1-1-1zv-1h1v1zm-54 0-1-1-1 1v-1h2zq1 0 0 0m27-1h-3v-1l2 1zm1 0v1zm9 0h3-2m8 0h-2zm-15 0h-2zm-19 0h-2zm8 0q-1 0 0 0m4 0h-1zm-15 2q1 0 0 0" class="st73"/><path d="M263 241h-4l1-8v-7h-2l-2-1v1l-1-1v1-1l-2 1h-5l-1-1h-4v1h-1v-1l-2 1v-1h-1v-1q-1 0 0 0l-1 2v-2h-2l-1 1v-1h-1l-1 1v-1h-2v-1l-1 1h-2l-1 1v-1h-1v1h-1v-1l-2-1v1h1l-1 1 1 1-2-1v-1h-2 1l1 1h-1q0-1 0 0h-1l-1 1-1-2v1h-3 1-2l-1-1-1 1 1 1h-2v-1h-1v1h-2 2l-1-1h-1v-2 1l-1 1h-1v-1l-1 1h-2v-1l-1 1v1h-1v-2l-2 1h-2v-1l-1-1-1 1h1v1l-1-1-1 1h-1l-1-1h1-1l-1 1h-4v-1h2q0-1 0 0h-1l-3-1-1 1h1-3v1l-1-1-1 2h-1v-1l1-1v-1h-2v2h1-1l-1-1-1-1q0-2 0 0h2v-1h-1 87v12z" style="fill:#813a2c"/><path d="M191 224h-1q0-1 0 0zm50 0" class="st310"/><path d="m28 189 4 6-32 2v-10z" style="fill:#db8d5f"/><path d="M33 196H23l-17 1H0v-1h19l13-1z" class="st459"/><path d="M27 188H0v-1h14z" style="fill:#ae5f3f"/><path d="M10 192h6l9-1h1q-7 2-15 1" style="fill:#ac5a3a"/><path d="M213 196v2l-5 2h-1l-1-1-2-1h-4l-1-1-1-1v-1l1-1 3-2c1-1 2 2 4 1q4 0 7 3" style="fill:#650e16"/><path d="M210 197q-1-2-4-2-3 1-4-2l1-1 3 1q3 0 4 2z" style="fill:#bc523f"/><path d="m209 198-3-2h-4l-3-1 2-1 3 1q3-1 5 2z" style="fill:#e88d76"/><path d="m208 199-3-2h-4l-2-1v-1l2 1 3 1h1q2 0 3 2" style="fill:#9d3a39"/><path d="m207 194 4 3h-1zh-5l-1-1 3 1z" style="fill:#e78b72"/><path d="m211 197-3-3h-1q3-1 5 3z" style="fill:#b95744"/><path d="M93 183h50l2 2-1 1-1 1-1 3v1l1 3 2 1h2v2h-3l-1-1H95l-10-1 5-7v-1l2-4z" style="fill:#dc8c5e"/><path d="M143 196H84l1-1h58z" class="st459"/><path d="M115 183h-4zm2 0h-2zm-24 0h-1z" class="st333"/><path d="m90 188 4 1 5-1 15-1h14l8 2q-12-2-24-1l-12 1H90" style="fill:#ac5c3b"/><path d="M123 190h-16l-5 1c-1-1 8-2 11-2z" style="fill:#ab5b3b"/><path d="m121 192-1-1h10l5-1h1l-1 1h-2z" style="fill:#ae5c3b"/><path d="m174 198-2 1h-3l-2 2-3 1h-1l-1-1-2-2v-3h4l1-1h4l1-1 1 1 3 1z" style="fill:#660d15"/><path d="M163 202q1 1 4-1c2-2 3 0 6-2l-1 1-4 2-4 1z" style="fill:#ba6248"/><path d="M173 197h-5l-1 2-4 1h-1v-1l3-1 2-2h3q2 1 0 0h1z" style="fill:#c45f48"/><path d="m167 196-2 2h-3l-1 1-1-1 3-1z" style="fill:#c35c48"/><path d="M171 196h-2l-3 1-4 2h-2q3 0 4-2l2-1z" style="fill:#ed9278"/><path d="m173 197-3 1-2 1-5 2v-1h4l2-2h2z" style="fill:#983a3a"/><path d="M180 202q1 0 0 0-1 1 2 1l6 1c1 0 5-1 3-2h-1v-4q3 0 2-2l1 1-1 3 2 1v-2l1 2h1v-3l-1-1 1-1h2l1 1v1l3 1 4 1h3l3-1v-2l1-1h7l1 2 8 4 3 1-6 1h-15l-7-1h-3 6l5 1h22l7 3 4 2h-17l-10-1-21 1h-10v1h2l10-1h21l12 1h16l5 3h-84l-16 1h-47l-25-1h-2l-25-1-54 1v-16l33-1 5 4 1 1-6 1c-3 1-8 2-2 4v1q-14 1-26-2-2-1 1-1l7-2 12-1q-10 0-20 3l-1 1 3 1q13 2 27 1l29 2 26-2h34-8l-26-1 1-1-4-3-7-1v-1l5-4h1l56-1v1l1 2-1-1v1l2 2h14q2 0 1-2v-2h2v2l3 4 4-1 6-2v-1l1-1h-1q1-2-2-2h-4l-3 1h-6v-1l-1-1h1l2-5 1-2v-1l-2 1v-1h-2l1 3-2 3h-1l1-1 1-1-1-4-2-3h9l1 1v1l2 1-2 1-1-1h-1v2h1l-1 1-1 1 2 1h1l1 1h2l2 1 1-1h4v-3q-3-1-3 2v-2l-1-1 3-1h1l1-2v-2h6l-1 2 1 2q0 2 4 2h-4l-1 1-4 3-1 2v1h1l1 1h1v-3l2-2v4l1 1v2z" style="fill:#dd8e60"/><path d="m164 196-2 1-1-1h-2v-1h4z" style="fill:#b56045"/><path d="M112 203h-11l-1-1 1-1h15l-1 1 4 1z" style="fill:#f8ac73"/><path d="m151 206-3 2h-4q-3-2-5-1h-3v-2l2-1 3-2h3l2 1h3l2 2z" style="fill:#620f17"/><path d="M138 207h4l2 1h3l3-1 1-1v1l-3 2h-2l-5-1z" style="fill:#b9664d"/><path d="m144 203 3 1h2l1 2h-2q2-1-1-1h-2l-5-1v-1z" style="fill:#bf5d46"/><path d="M140 203h3l2 1h4l-1 1h-2q-1 1-3-1t-5 0z" class="st164"/><path d="M147 207h-3q-3-2-4-1h-3q-1 0 0 0 0-1 0 0l5-1 3 2z" style="fill:#983939"/><path d="M144 203h-4z" class="st164"/><path d="m177 207-3 2h-4q-3 1-5-2v-1l1-1 3-3 4 1 3 1 1 1z" style="fill:#651017"/><path d="M165 208q2 3 5 1l2 1 2-1 3-2-1 2q-2 3-5 2l-4-1z" style="fill:#b8654c"/><path d="m173 205 2 1 1 1h-1l-1-1h-5 2l4 1h-9l3-3q2 2 4 1" style="fill:#f29b84"/><path d="M174 209h-5l-4-2h1l4 1z" style="fill:#913132"/><path d="m175 207-1 1-2-1zl-2-1h-4q1-2 4 0zm1 0-3-2z" style="fill:#c96952"/><path d="M134 201h-2q-3 2-5 0h-2l-1-1v-1l2-2 4 1 1-1h2q3 1 2 3z" style="fill:#660e16"/><path d="m134 201-3 1h-5l-3-1 1-1h1l3 1z" style="fill:#b9634b"/><path d="m126 199 1-1h7v2h-4l-1 1q-3-2-4-1z" style="fill:#b24d3f"/><path d="m134 198-3 1h-5v-1h2q3 1 4-1z" style="fill:#e1856f"/><path d="m201 206-4-1-1-1 1-1h4z" style="fill:#650f13"/><path d="M200 205h-2l-1-2h2z" style="fill:#b44e40"/><path d="M190 208q-3 0-4-2h1l3-1 1 1z" style="fill:#661115"/><path d="M190 207h-3l2-1z" style="fill:#b95848"/><path d="M159 206h-4v-1l1-1 1-1 2 1z" style="fill:#650f15"/><path d="M158 205h-2l1-1z" style="fill:#ae5246"/><path d="m155 193-4 2 1 1 4-2 1 3v-1l1 2h-3l-3 1h5l-7 1-3-1 1-1 3 1v-1l-2-4 5-2z" style="fill:#c57d64"/><path d="m155 194 1 1-1 1-4 2v-2z" style="fill:#460808"/><path d="m152 197-1-1 4-2v1z" style="fill:#b98379"/><path d="M213 166v8l-1 7v1l2 1h92-111l-1 2 1 1v2l-1 1-2 1h-2q-2 1 1 1l2 2 1 2v2h1v4l-1-1q-4 2-3-2v-2q1 2-2 3l1 2-1 1v1h-4l-1-1 1-1v-2l-2-1v4h-4q-2-1 1-3v-2l-1-1v-4q-2 1-1 3-1 3-3 2-3-1 0-4l5-4h1l-1-3-1-3h-5v1q1 3-2 3 0 2-2 1v2q3-3 4 0l-1 2h-3q-1 2-3 0-3 2-4-1l-3-1h-1l2-1v-1l-2 2-1 4h-2l1 2v1l1 2-1 1h-1l-4 1-1-2h3l2-1v-1l-2-4h-1l-5 2 2 5h-8q-2 1-3-2l2-1-1-1h2l2 1q1 1 1-1h1l-3-2h-1q-2-2-1-4v-3l3-2-2-2h-28q0 2 0 0H92h11l34-1h4q2-3 4 0h3v-2c-2-4 5-4 3 0l-1 2 15-2 3-1v-2q2-2 1 0h1l-1 2 3 1 2-1q0-1 0 0h2q0 2-2 1v2h8l1-2 2-1 1 1 1-1 1-1h-2v-3h1q3 0 1 2l1 1 2 1 1-2c2-3 5 1 2 2q-2 0-2 2l2 1h5v-12l3-1v1l-3 1 1 10v1-11h1l6-3v1l-6 3v10h11l1-8v-10z" class="st228"/><path d="M243 182h64v1h-92l-1-1z" class="st39"/><path d="M99 183h-5z" class="st280"/><circle cx="149" cy="179" r="1" style="fill:#cd816d"/><path d="M213 174v-5l1 1z" class="st348"/><path d="m189 191 2 1-2 6-8-2 1-1 6 1 1-4-4-1v-1z" style="fill:#ac6c62"/><path d="M189 191h-6l-1 4-1 1v-1l1-6 3 1z" style="fill:#ce917f"/><path d="M186 201h-2v-3h3z" style="fill:#dc8a60"/><path d="m195 185-2 3 1 1-2 1 1-5 1-2z" style="fill:#b36252"/><path d="M191 196v2h-1v-3l1-3z" style="fill:#a7584c"/><path d="M186 180v-2l1 1 1 1z" style="fill:#f2c6af"/><path d="m179 192-1 2-1-1 1-1 2-2z" style="fill:#d69c91"/><path d="M189 202h-3l2-1z" style="fill:#ed9d86"/><path d="M183 201h-3l2-1z" style="fill:#ee9c85"/><path d="M177 196v-1q-1-1-2 1l2-2 1 1z" style="fill:#c76d5c"/><path d="M194 199h2v2q-1-2-2-1" style="fill:#cb7563"/><path d="m189 190-4-1z" style="fill:#af645c"/><path d="m183 200-1-1v-1h1z" style="fill:#be6c5c"/><path d="m191 181-3-1q2-1 3 1" style="fill:#d38a7c"/><path d="m193 193-1 2z" style="fill:#c47868"/><path d="M194 195v-1zl1 2h-1z" style="fill:#dd8f7e"/><path d="m196 186-1 2q-1-2 1-2" style="fill:#ce8370"/><circle cx="187" cy="176" r="1" style="fill:#c77c68"/><path d="M187 200h1v1h-1z" style="fill:#a8574f" transform="rotate(-1 188 200)"/><circle cx="193" cy="177" r="1" style="fill:#c87e68"/><path d="m195 185-1 3z" style="fill:#d58b83"/><path d="m190 199-1 2z" style="fill:#cd786a"/><path d="m181 185 1-2z" style="fill:#f0b5ab"/><path d="M181 191v-1z" style="fill:#d08a83"/><path d="m193 183-1 3-1 2h-4l-5-1 2-6z" style="fill:#c67d64"/><path d="m193 183-9-2-1 2-1 4 1-6 1-1z" style="fill:#f6bda7"/><path d="M187 188h4l1-2v3l-1 1z" style="fill:#a25850"/><path d="m189 188-4-1v-2l4 1z" style="fill:#420b0b"/><path d="M188 186h-3l-1-1h3" style="fill:#f2e1de"/><circle cx="190" cy="185" r="1" style="fill:#300807"/><circle cx="190" cy="185" r="1" style="fill:#eed7d3"/><circle cx="185" cy="184" r="1" style="fill:#340706"/><path d="M185 184v-1h1z" style="fill:#ebd0cb"/><path d="m185 191 4 1-1 5-6-2 1-4z" style="fill:#380a0c"/><path d="m188 196-6-1 1-3 1-1 5 1z" style="fill:#988689"/><path d="M186 193h-2v1l1 1h-1v-3zl-1 3 1-1z" style="fill:#230c0f"/><path d="M145 194v-3l-1-2h-1l1-2 1 3 2 4q-2 1-2-1" style="fill:#af5f4d"/><path d="m144 192-1-2v-1z" style="fill:#bd725c"/><path d="m157 197-1-3h-1v-2z" style="fill:#f9d8c7"/><path d="m149 183-3 1-1-1z" style="fill:#d98565"/><path d="m141 198 2-1-1-1h1l1 2z" style="fill:#e89882"/><path d="m160 188-2-1v-2 2z" style="fill:#e28d7a"/><circle cx="143" cy="182" r="1" style="fill:#eb997c"/><path d="m157 194-1-1 1-1z" style="fill:#ab5c55"/><path d="M158 192v-1z" style="fill:#b9766c"/><path d="M147 199h1z" style="fill:#d68677"/><path d="m145 198 1 1z" style="fill:#e38f7a"/><path d="m159 191 1-1z" style="fill:#e5a99d"/><path d="m149 197-1-1z" style="fill:#d88b7c"/><path d="m156 190-3 1-5 3-2-4v-1q-2-3 1-4 2-2 6-1z" style="fill:#c77e63"/><path d="m156 190-2-5q-2-2-8 1v4l-1-4 6-2 2-1v1q3 2 3 5z" style="fill:#f9ccb9"/><path d="m154 187-1 1z" style="fill:#5a1014"/><path d="M148 189v1-2z" style="fill:#671b1d"/><path d="M150 191v-1l4-2 1 2z" style="fill:#3e080c"/><path d="m152 191-1-2h1l1 1z" style="fill:#f7f1ef"/><path d="M151 191v-1h1z" style="fill:#f6f1ef"/><path d="M153 190v-1z" style="fill:#ddbebf"/><path d="m164 190 1-1-1-1 5 2-1 3-1-1h-3z" style="fill:#c67a5e"/><path d="m165 187-1 2-1 1h-1z" style="fill:#f4bea8"/><path d="M173 191h-1v-1h2z" style="fill:#b65649"/><path d="M174 187v-2z" style="fill:#d68673"/><path d="m164 183 1-2z" style="fill:#e9c0b7"/><path d="m173 183-2 4h-1l-6-2 1-4 1-1q4 0 6 3" style="fill:#c98168"/><path d="m173 183-1-1-5-2-1 1v-1l7 2z" style="fill:#facbb8"/><path d="M169 185h-3v-1z" style="fill:#470b08"/><path d="m169 186-2-1v-1z" style="fill:#f2d0c9"/><circle cx="171" cy="184" r="1" style="fill:#4e0d0c"/><path d="M166 183h1v1z" style="fill:#3c0707"/><path d="M160 44h-5v-1z" style="fill:#bbafaf"/><path d="M147 44h-2z" style="fill:#c4a8ab"/><path d="M163 44h-2z" style="fill:#ddc8c9"/><path d="M155 0h16l2 1h9l3 1h7l2 1 8 1h4l23 5 23 8 3 1 3 1v3l-1-1v1-1q-24-9-49-14A296 296 0 0 0 53 21l2 10v1l-1 2-1 1v1l-4 1h-1l-15 7 16 10v2l-7 20 18-7 3 1v1l-3 1-7 2-3 1-5 2-3 2h-2l-1-1 4-12 3-8v-3l-5-3-12-8 1-1 2-2 17-7 4-1-2-8v-4l1-2 2-1 22-7 9-3 7-1 4-1 8-2 10-1 2-1h9l3-1h10l2-1z" class="st278"/><path d="m189 43-4 3v1l-1 4-1 1-1-1v-1 2q-1-4 1-7h-2l-4-1h-16l-5-1h-4l-4 1h-14l-2 1h-8l-5 1h-2l-1 1h-5l-1 1h-1l-16 3-7 2-2 1h-1q-2 0-1-2l6-2a262 262 0 0 1 97-7l3-2h3l2 1z" class="st332"/><path d="m256 32 1 1 4 2 3 1 12 5 5 2-1 2-5 3-4 2-5 4-2 1-1 1 3 8 4 11v3q1 1-1 1h-1l-5-2-2-1-15-6-8-2-3-1v-1l1-1h1l13 4 9 3 8 4-5-22 15-10-16-7-5-1-2 6-1 3-1 1-1-2 3-9v-1l1-2 1-5 1-4 1 1-1 1v3z" class="st278"/><path d="m261 37-1 3-5 21q-1 5-5 8l-10-3-4-1-4-1 8-1 7-1 1-1 3-8 2-7 1-4 2-7z" style="fill:#dfb397"/><path d="M250 69q4-3 5-10l1-6 4-13 1-3 11 4 6 3-3 1-7 5-7 4v3l3 7 4 12-3-1-6-2z" class="st356"/><path d="m49 37 5 17 2 9 4 6-9 4-9 3 4-12 2-7 1-3-8-5-9-5 4-2z" style="fill:#fce8d0"/><path d="m55 41 1 7 4 12 2 2 9 1 6 1-16 5h-2l-1-1-3-5-2-7v-3l-4-12-1-4 4-1 1-1z" style="fill:#dfb297"/><path d="m81 52 2 1h-2l2 9v1l-1 1-4 1-4 1-8 2-3 2-1-1h1l-1-1h-2l16-5-15-3-5-19h-1l1-1v1h1l-1-4v2l-1 1-1-5h-1v-1l1-2h1v-1l8 27 17-7zq1 0 0 0" style="fill:#5e1e26"/><path d="m70 61-4-1 11-4 2-1 2 7z" style="fill:#daad91"/><path d="M56 41v-1q0-4 1-3v1l1 3v2z" class="st278"/><path d="m257 22-2 6-2 8-5 19-2 4-27-10q-3-6-9-8l-6-1-8 2-4-1h-4l-4 2a231 231 0 0 0-61 0l-11 2-14 3-11 2-6 2-9 3-9 4-6-19-2-8-2-11 14-5 29-8 14-2 14-2a319 319 0 0 1 89 4l13 3 23 7z" class="st138"/><path d="M145 34q-3 0-2-2V12q0-3 2-3 3-1 4 2l3 6 4 6V12q0-3 3-3l2 2v22q-3 2-5-1l-4-6-4-6v12l-1 2z" class="st87"/><path d="M146 33v-5h1v3z" style="fill:#dc8062"/><path d="m158 12-1 3 1-5h1z" style="fill:#de7e5f"/><path d="M82 45q-4 2-9 1l-1-2-2-8-4-10 1-2 5-2 5-1q5 1 6 4t-2 6q5-1 6 4 2 4-1 7z" class="st100"/><path d="m82 39-5 3-2-7 3-1 3 1q3 2 1 4" style="fill:#fde8d0"/><path d="m74 31-2-5q4-2 6 1c2 3-2 4-4 4" class="st356"/><path d="M69 28q-2 1-2-2l2-2v1l-1 1z" style="fill:#dc7a5c"/><path d="M82 32h-1v-1z" style="fill:#da795d"/><path d="M69 29v1z" style="fill:#df8366"/><path d="M194 30q-1 6-8 6l-7-1-2-3 1-9 1-10 2-2h8l4 3 1 3q0 4-3 6 4 2 3 7" class="st100"/><path d="M189 27v3q-2 3-7 1l1-6h3z" style="fill:#fde7d0"/><path d="m186 21-2-1v-4l1-1 4 2v2z" style="fill:#fde9d2"/><path d="m179 32 2 2zv-3h1z" style="fill:#dc7c5f"/><path d="m182 12-1 3q-2 1-1-3z" style="fill:#dc7c5e"/><path d="m190 23 2 2q-2 1-2-2" style="fill:#dc8061"/><path d="M181 17v-2z" style="fill:#df8061"/><path d="m117 28 1 6-1 3h-2l-2-2-3-20q0-3 3-3l3 2v7l4-6 2-3q2-3 4-1v4l-5 8 4 4 2 2 2 1 1 3-2 2h-3l-2-3-5-5z" style="fill:#822f28"/><path d="M128 34h-2l2-2h1z" style="fill:#de7f61"/><path d="m114 34 2 1v1zv-1z" style="fill:#da7c61"/><path d="m126 14-1-2h-1v-1l2 2z" style="fill:#da795b"/><path d="M96 34v5q0 3-4 2l-2-2 1-4 1-17 2-3q5-1 6 2l9 20-3 1-2-2-2-3z" class="st87"/><path d="M96 29v-5l1-3 3 7z" class="st350"/><path d="m94 19-1 2v1q-1-3 1-5l1-1v1z" style="fill:#dc795c"/><path d="m109 36-2 1 1-2-1-2h1z" style="fill:#d97b5f"/><path d="m93 40-2-2h1z" style="fill:#d97a61"/><path d="M239 36q3 8-5 11-5 0-9-4-2-2-1-5l2-2 2 1 1 2q0 3 4 3l1-3-1-3-3-2q-3-5-1-9l5-4 7 2q3 2 2 6l-2 2q-3-2-3-4l-3-1q-2 1-1 3l2 3z" class="st472"/><path d="m233 45 4-3 1-4 1 1-1 4q-4 4-5 2" style="fill:#dc8060"/><path d="m236 23-4 2-1 1-1-1q2-3 5-3z" style="fill:#d9795a"/><circle cx="230" cy="27" r="1" style="fill:#dc7e61"/><path d="m216 39-1 2q-2 1-4-1v-2l4-17-4-1-2-2q1-3 3-3l2 1 11 2q3 2 2 3 0 3-3 2l-4-1z" style="fill:#812d29"/><path d="m213 38 1 2h-1l-1-1 1-5v-1z" style="fill:#d8795d"/><path d="M226 22q1-1-1-2l-1-1 2 1z" style="fill:#da7f61"/><path d="m214 17-3 1h-1l2-2z" style="fill:#de8567"/><path d="M138 34h-4l-1-2-1-11-1-8q0-3 3-3 4 0 3 2v9l1 11z" style="fill:#812e28"/><path d="M133 14q-2-3 1-3v1z" style="fill:#e18364"/><path d="M201 38h-2q-2-1-2-3l1-2 3-17q0-3 3-2l2 1v2l-3 19z" style="fill:#832f29"/><path d="m204 15-2 3v-3z" style="fill:#e08465"/><path d="M179 161h5l7-1q2 5 8 7 8-1 14-7v2l-1 2h-1l-2 1v1l-2 1-2 1h-1l-2 1-3 2v11h-5l-2-1-1-1 2-1 2-1-1-2-2 2-1 1h-2l-1-2v-2h-2v-9l-1-1q-8 1-14-1l-5-1q-2-3-4-2l-3-1-2 3-1-1q-3-2-3 1l1 2v1l-3 1q-3-1-3 2l-2 1h-7v-4h5l9-5 3-4 3-2q9 5 20 6" style="fill:#dcb89f"/><path d="M213 164v10l-1 8h-11v-8l-1-3 5-1 2-1 1-1 3-2z" style="fill:#eb6f89"/><path d="M209 128q-6 4-13 4l-9 1v1h1l-3 2v1l-9-1-7-1q1-3-2-5l-1-2 2 1-3-2-8-6-1-1v-2l8 5a47 47 0 0 0 28 4q10 0 16-6 5-3 6-7 3-8 2-17l-2-9-1-5-1-2v-1h1l1-1 2-1 1 2-1 9 4 9 1 2v6q1 9-5 17z" style="fill:#ec6e89"/><path d="M226 57q0 3-2 5-6 3-9-2l1-1-2-1 1-4q-3 4-8 4-8 0-12-7l-2 1q-3 2-7-1-2-2-2-5l5-3 1-1 6 2-1 2 1-2 5-2q6-1 11 2 4 3 6 9v2l2-2q4 1 6 4" class="st350"/><path d="m226 57 1 5q1 2-2 5-2 3-7 2h-2v-2l3-1q-5 0-9-4l3-2h-11q-6-2-7-8v4h-3l-5-1-1-1 2 3v1l-3-1-2-6q-1-3 1-5-1 3 2 4 2 3 5 3l2-1 2-2q4 8 13 7 5 0 8-4l-1 5q-1 0 0 0h1l-1 2q2 4 7 3 6-1 4-6" style="fill:#e4ba9e"/><path d="m187 67-7 1 4 1v1l-3 2q-5 1-5-2l1-1q-8 2-14 10l-3 6-2 3-2 2-1 1-3 2-3 7h-1l1-4 5-7 3-3 7-10 4-4q8-6 17-7z" style="fill:#fcc3d9"/><path d="M233 86v3l-4 10v2h-3l-5-5q-4-6-3-15v-3l1 2q-1 5 1 11l5 6 2 1 2-2 1-3 2-4z" style="fill:#ee6c89"/><path d="m226 82-1-1-3-4q0-2-3-2-5-1-8 1h-1l2-1 6-2q4 0 6 4z" style="fill:#fdbed7"/><path d="m168 153 1-8a26 26 0 0 0 24-9h7l3 2v4l-4 6-5 4-6 2q-11 3-20-1" style="fill:#fb9db0"/><path d="m185 136-2 4-10-2-4-1v-3l7 2z" style="fill:#fda1b4"/><path d="M169 145h4l6-1 9-4 3-2 2-2v1l-5 5a25 25 0 0 1-19 3" style="fill:#fcc6d4"/><path d="m223 156-1-1q-5-1-6 3l-1-1 2-3q3-3 6-1z" style="fill:#f6ddc7"/><path d="m223 156 1 2q-3 4-9 3v-1h2l4-2z" style="fill:#e8c4ad"/><path d="m155 121-1-1v-9l1-1 1 1v10l-1 1zm67 36 1 1zm-8 25h1v1zl-1-1v-1l1-6v-6l-1-2v-3h-1q0 1 0 0v-1l2-1v-1h1v-1l1 1 6-1q3-1 1-4v-1q-2-5-7-1l-1 1v-2q3-3 5-3 3 1 5 4v5q-1 4-6 4h-4v5l1 2v-1l1-4 5-2q5 2 3 7l2-1 1-1q3 2-1 6l-4 1-1 1-7 1z" class="st348"/><path d="m221 174-5-1v-1h4q3 0 3-4l-2-1-1 1 1 2-1 1q-3-2-1-5l2-1 3 1q2 4-2 8" style="fill:#faa8b5"/><path d="m221 174-6 1v-3 1h3z" style="fill:#f26e85"/><path d="m224 173 1-1 2-2q0 3-3 3" style="fill:#f79dad"/><path d="m208 139 3 13 1 6-1 1-4 3-8 4-7-7 3-1 6-3 1-2h1l-1-1-3 2q-7 5-16 5h-2l-15-3 2-3h1q15 6 28-4 6-4 5-11l-2-2h-6l4-2 3-1 6-2 1 1z" style="fill:#ec6d88"/><path d="M181 159h-2zm2 0h-2z" class="st348"/><path d="m202 155-2 2v-1z" style="fill:#710c21"/><path d="m256 32 1-4v-6l-3 11-2 11 2-3q0-1 0 0-1 10-6 19v1l-15 2 3 1v1h-1v1h-1l-6-2v2q-3 4-7 4l3 2 1 1 1 1 1 3q2 3 5 3l3 6-1 4-1 3-2 8-2 2-6-3v8q0 5-2 9l-3 6-3 3-2 1-4 2 1 2v2l1 9 1 7 1 3v2h-1l-1-3-3-13v-8h-2l1-1 2-1v-1q6-3 9-9 4-9 3-20l-1-1q-6-8-4-18v-2l-3 2h-1q2-4 6-3v2q-2 14 9 22h2q0-6 3-10l1-5v-1h-1l-4-3h-1l1 2q-2 1-2-2v-1l-2-4q-6-7-13-1h-1l-1-1q-11-2-21-8h-1l-2-2q-8 1-16 6-7 5-11 14l-4 5q-5 4-5 10l5 6q1 2-1 2h-1q0-2-3-5l-16-13h-1l-1-2-3 1v-1l-1 1q-3 0-3-2l1-3-5-2-1-1v-2l-15-13c-9-7-20 1-27 7S64 88 60 97v1q-3 9 3 17l45 37q5 4 11 4l6-2 5 1v1c3 0 0 2 0 1v1q-1-2-5-1h-2l-8 1q-6-2-11-6l-5-4-10-8-9-8-10-9-7-6-2-1-4-7v-7l3-10 1-2 5-7 3-4 2-3 4-4 2-1q5-5 11-8l10-2 2 1 4 1 4 3 6 6 2 1 3 3 2 1q6-4 12 0l4 4 1 2 3 4 2 1 4 4 1 2 5-6 7-10-3 1h-3l-2-2v-2q3-3 2-7l2-4 3-2 3-1h3q3-3 5-3l2-1 1 1q5 1 7 6h2l4-1 1-3q-5-3-6-8v-2l1 1h1l2 4 2 3 1-1-2-3q0-1 0 0l9 2-1-4h1q5 12 17 8 2 1-1 2 3 4 8 4v1l-3 1q0-1 0 0l4 1q10-2 6-11v-1l-5-3q-2-2-2 1h-1q0-9-9-12-8-3-13 2-2 0-1-1-3-2-6-1l-1-1h3v-1h-3q0 2 0 0h3l1-1 4 2c8-6 20-1 23 7q14 4 27 10l2-4 8-33h1v-1q1 1 1-1l1 1-1 3z" class="st348"/><path d="M223 109v-5z" style="fill:#ac9298"/><path d="m239 61-10 1 1-4v-3l14 5z" style="fill:#dbae94"/><path d="M228 54v3l-3-4z" style="fill:#fcf9f9"/><path d="M192 41h-2z" class="st332"/><path d="m199 71-12-7 3-6 3 1 3 1 4 3 5 2q2 1 1 3-3 4-7 3" class="st138"/><path d="M178 63v1l-3 1-2-2q-1 0 0 0-1-1-3 1l-5 5q-4 5-10 6h-1l1-1h1l2-7q1-4 5-3v1l2-2h1l3-2q5-2 8 2z" style="fill:#fd9ab1"/><path d="M173 63q-3 0-4 2l-2 4-6 6-7 2v-2l7-2 4-4 3-3 3-3z" style="fill:#ed6984"/><path d="M163 64h-2l-2 1-1 3-2 6h-1l2-6v-2q1-3 4-3h3z" style="fill:#fcc0d8"/><path d="m178 63-1-1-3-1h-4l-3 2h-1l5-3h4z" style="fill:#fdbfd6"/><path d="M233 86q-1 1-3-2l-2-1-1-1v-1l4 2z" style="fill:#fbbad3"/><path d="m169 68 3-4 2 2z" style="fill:#db536e"/><path d="m218 71-4 1 1-2z" style="fill:#e0cdc9"/><path d="m199 71 4-1 3-4-1-1-4-1-5-3-2-1-4-2h6l1 1q5 4 12 4l5 4-2 6h-4z" style="fill:#e7baa0"/><path d="m209 70 1-2 1-3v1z" style="fill:#56191d"/><path d="m147 96-1 2-12-10 2-4v1z" style="fill:#fc9aae"/><path d="m147 96-3-3-2-2-4-6-1-1v-1l2 3z" style="fill:#fdbfd8"/><path d="m166 163 1 1 2 1 1 2-1 2-3 2q1-1-2-2l-3-4-1-1v-1l2-2 1-1q3 0 3 3" style="fill:#590c15"/><path d="m169 167-1 1-1-1-3-2q0-3-3-3l2-1q2 0 2 3l3 2z" style="fill:#b74e3c"/><path d="m167 169-1-2-1-1-2-2-2-1 1-1 2 1 3 3z" style="fill:#b95142"/><path d="M169 168h-1l-3-2q0-3-2-3v-1l3 2z" style="fill:#8e322f"/><path d="m168 169-3-3-2-3h-1 2l1 2 3 3zm1-2-1 1-3-4-2-2h-1l1-1q2 0 2 3z" style="fill:#e68970"/><path d="m151 167 1 3 1 1q1 2-1 2l-3 1-1-2v-4q0-2 2-1z" style="fill:#5e0e16"/><path d="m150 168 2 4-2 1h-2q2-3 0-4l1-2z" style="fill:#ad4a3f"/><path d="m150 168 2 4h-1z" style="fill:#e78c72"/><path d="m157 163-1 1-2 1-1-1q-1-2 1-3h2z" style="fill:#5c121b"/><path d="m156 163-2 1v-2z" style="fill:#d07958"/><path d="m162 161-2 2v1l2 2 1 2q3 1 3 3 5-2 3-5l-3-2v-1l1-1q8 4 18 3l1 2v13l-2-1-1 1-1 2h-8l-1-1 1-1h1v-1l-1 1v-1l-1 1-1 1-3-2v-3 1l1-1h-1v1l-1 2-3 1h-1l-1 2h-13v-4h-2l1 2v2h-5l-1-1h-1v1h-5v-5l1-5 1-4 1 2q4 1 7-1h1v2q0 4 3 2 3 1 2-2l-2-2v-2l3-2h1l2-2 2-4z" style="fill:#fdedd8"/><path d="m160 180-4-1-1-1 1-3 1-3v-3h4l1 1v2q1 4-1 6z" style="fill:#631117"/><path d="M158 170h1v3-3h1v6l-1 3h-1l-2-1q-1-2 1-3l-1-5z" style="fill:#ae4b3d"/><path d="m160 170 1 6-2 3v-1q2-3 1-6z" style="fill:#e58c72"/><path d="M159 170v3l-1 5h-1l2-5z" style="fill:#e38a72"/><path d="M181 175q0 2-2 1h-1v-1l1-5h2l2 2v1z" style="fill:#5a0c10"/><path d="m181 173-1 3h-1q0 1 0 0v-1l1-4h1l1 2z" style="fill:#e38068"/><path d="m181 173-1 2-1 1 1-2 1-2z" style="fill:#af493d"/><path d="M180 170v4h-1z" style="fill:#a94b3c"/><path d="m175 172-1 1-2-2 2-1z" style="fill:#5f1416"/><path d="M174 172h1z" style="fill:#c06e5a"/><path d="M210 76q6-4 11 0l3 5 1 1 1 2h1l-1-2 1 1 4 2 1 1v-1 1l-1 3-3 6q0 6-4 2-7-7-7-18v-1l-1-1-2 1-3 2 2 6 1 9q4 11-2 21-7 11-20 12a48 48 0 0 1-36-10h-1v-6l-2-6-5-6q1-7 7-11l3-4q5-11 18-17v1l-1 1q0 2 3 2l5-2c1-1-3-2-4-2v-1h7l4 2 9 4 5 1z" style="fill:#fd9aaf"/><path d="M200 80q6 5 4 6l-6-4v-1z" style="fill:#58192a"/><path d="M200 105c0 2-7 1-7 0q1-3 7-1z" style="fill:#fcc0d7"/><path d="M173 76h-7q-1 0 0 0c2-3 7-4 7-2z" style="fill:#5b1829"/><path d="m161 94-1 1-4-3q3-1 5 2" style="fill:#fcc1d9"/><path d="M202 103q-6-3-12-1h-1 1l-1-3q-1-3 1-7l3-3q4-2 7 1 4 5 1 11z" style="fill:#58182b"/><path d="m196 101 1-6-4-3-2 2q0-3 3-4h5q3 3 2 6l-1 5z" style="fill:#fdfbfd"/><path d="M193 94v2l-2-1v-1z" style="fill:#fcfbfc"/><path d="m182 124-2 3q-4 0-6-4l4 1z" style="fill:#ef7a8e"/><path d="M182 125q-3 2-6-1l3 1h4" style="fill:#ba3b52"/><path d="m194 112-2-2v1q-3 6-9 10-7 3-12-3l-2-4q0-3-3-3-5-1-7-6v-7l4-4-1-2-2-1q0-6 3-9 4-3 7 0 3 5 0 10 6-1 12 3l1 2-8-4 6 5q5 7-2 13 4 1 8-1l3-1-1-1-1-1q3 0 5 3z" style="fill:#5b152b"/><path d="m164 87-1 5 1 1-2-2q-2-3 3-9h3q3 2 2 6l-2-3-2 1 1 1-1 2z" style="fill:#fdfcfd"/><path d="M181 104q0 5-4 7l-8-1q-6-2-9-6l3 2 4 2 6 1q6 1 8-4z" style="fill:#de516f"/><path d="M186 117q-3 4-8 3h-3v-1l1-1 4-1z" style="fill:#fd767c"/><path d="M186 117h-6l-3 1-1 1 1-2 4-2 6 1z" style="fill:#f84a5b"/><circle cx="168" cy="91" r="1" style="fill:#faf1f6"/><path d="m179 98 2 6q-1 7-8 6l-6-2-7-4v-1q0-1 0 0 0-5 4-7 8-3 14 2z" style="fill:#fa7689"/><path d="m179 98-2-1-6-2-6 1q-4 2-4 7v-5l4-3q5-3 10 0l4 2z" style="fill:#fcb0c4"/><path d="M176 100q3 6-1 7c-3 1-2-7 0-7z" style="fill:#5b162b"/><path d="M165 104h-2q-1-4 3-6h1q1 2-2 6" style="fill:#58162b"/><path d="M119 81q2 3 6 2l-1 4 1 1h3l4 3h-1l1 1h1l9 8 5 3q5 5 6 12v6l1 4-3 2v-1l1-2v-2h-6l-1 2h-1l1-2 2-2q2 1 3-2v-1l-1 1v-2l-2 1v3l-2 1-2-1h-3 2l2-1 1-2 1-1v-2l-2-2-5-1-1-3v-1l-2-1-1 1 1 1 1 1 1 1-3 1-1 2-1 1v3l-1-4h-2l1-4-2-1 7-5 11 9q1-3-2-6l-7-6-2-1-7-6-10-9-3-2-12-10-5-4q-8-2-14 4-3 3 0 3l6-4h2l-8 12-1 1h-1v3l-6 6-1 1h-2q-3 2-4 0v1l-3 2-1-1h-3v-1q0-1 0 0 5-10 14-19 6-6 13-9 5-3 10-1l5 3z" style="fill:#c5dee4"/><path d="M63 96q-2 6-1 11t4 6l46 38q6 2 13 0l6 1-1 2v1l-2-1h-3l-5 1q-7 1-12-4l-8-6-18-15-15-13-4-3q-4-3-4-8l1-10 1-2z" style="fill:#d1e5ec"/><path d="m119 81-9-7-9-7q-5-3-11 0l-7 5-4 2-3 3-7 8-6 11h-2l-1 1q5-12 14-21l3-3c5-4 13-11 20-10q4 0 7 3l5 4 10 8z" style="fill:#eef8fc"/><path d="m153 108 1 3 1 4v6l1 3-2 1v-1l-1-3v-4l-1-6-6-8-4-3-11-9 1-1h1l7 5 9 8z" style="fill:#f4fcfe"/><path d="m133 90-2 1q1 0 0 0l-3-2v-1h3z" style="fill:#b5b5bb"/><path d="M64 98v6l2-1h1q0 3 2 2l2 1h1l-1 2-2 1-3 2 1 1 2 2 1 2q1 2 4 1h1v1q-1 2 1 3l3 1 1 1q0 2 2 3h2l1 2q1 2 4 2l2 2v4h1l4 1q4 1 4 3l1 2 2 2q2 0 3-2v4l1 1 4 1h2v2l2 2 2-1 2 2 2-1 3-3 4 1h1l3-1v1l-1 3-6-1-4 1-5 1-6-3-4-3-7-6-3-2-8-7-6-5-2-2-4-3-6-5-4-3-2-3q-5-7-1-15v-1l1 1z" style="fill:#89a0ac"/><path d="m116 82-2-2-2-1-4 2-14-10h-1l-2 1-5 2q-1 2-3 1-1-1 2-3l7-4 5-1 3 2 4 2 8 7z" style="fill:#f9fcfe"/><path d="m108 81-2 1-4 4-1-2-2-2-3-1 1-2 1-2-1-1h-1l-1 1 1 2-1 2-3-1-2 1-2 2-1 2 1 1 1 2 3 1v1l-3-1-2 1-2-3 1-3 8-13q4 1 6 4l6 4z" style="fill:#c7dfe3"/><path d="m78 101 1-2v-1l-1-4h-1l7-7h1l1 3 1 2h1v1h-3l-1 4v-1h-2l-2 2v2z" style="fill:#c8dfe4"/><path d="m136 103 2-3 6 5q4 3 4 8l-2-1-3-3z" style="fill:#f3fdfe"/><path d="m152 123-1 3v1l-2 1-2 1h-2l-1 1c-2 0 1-3 1-3l2-1h-1l1-3z" style="fill:#d0886e"/><path d="M142 129v2l-1 3-2 3-2 1-3-1 2-2 2-1 1-2 2-2h-3l4-3z" style="fill:#ad4c3d"/><path d="m107 137 1 1 2 1-2 2-1-1-3 1v1h-2l-1-1-2-2v-3l2 2q2 3 4 2z" style="fill:#b15343"/><path d="m113 131-1-1v-1l2-1c1 3 3 1 4 2l1 3-3 2-1-2z" style="fill:#ca6d54"/><path d="M137 121h3q2 0 2 2v1l-4 3-1-1-1-1z" style="fill:#c08168"/><path d="m137 141-2 3-1 1-2 4h-3l1-3 1-3 3 2 1-3q0-2 2-1" style="fill:#b14e3f"/><path d="m94 71-5 9-3 3-1-1 1-1 6-8 1-3z" style="fill:#7b99a7"/><path d="m142 129-1 1zl-1-1-3 3q-1 0 0 0l-1 2q-1-3 1-4l2-2 2-1 2 1-2 1z" style="fill:#c96e56"/><path d="M85 87h-1l-3 3-3 4h-2l7-8 1 1" style="fill:#7e9aa5"/><path d="m129 127-1-4 1-1v-1l1-1 2 5-2 1z" style="fill:#de8061"/><path d="m135 126-2 2-6 1v-1q4 0 6-3z" style="fill:#e38466"/><path d="M117 124v3h-5l1-1 1-2z" style="fill:#b75748"/><path d="M129 122v5h-1v-5z" style="fill:#b1493a"/><path d="m136 127-2 2-3 2-3 1h-1v-2h2l4-2z" style="fill:#c15944"/><path d="m136 127-3 2q0 3-4 2l-1 1h-1l-1-1 6-2 1-1 1-2z" style="fill:#e18568"/><path d="m66 103-3 1 1-6h1l1-1h1v2l-1 2z" style="fill:#c5e1e6"/><path d="M129 120c-2 2-3-2-6-2l-3 1v-1l1-1q2-2 4-1v-1l5 2h2z" style="fill:#bd5544"/><path d="m125 115 2 1 3 1h-3l-1-2h-3l-2 1 1-2zm3 5q-3-3-7-2l2-1 3 1 1 1h2z" style="fill:#dd7c60"/><path d="M101 122h-3l-1 2 6 4q2 1 1-1l-3-3h6l1-1h6l-2 2-2 3-5 9h-1l-4-4-10-8-9-7v-2l4-7 14 12z" style="fill:#e3bfa1"/><path d="m108 124-2 1h-5l3 3v1h-1l-6-4v-2l1-1h5l-3-2v-2h1l3 2 3 2z" class="st472"/><path d="m103 128 1 1z" style="fill:#eeaf9c"/><path d="M114 124h-6l-1-1-3-3-3-2q-2 0-1 2l3 2v1l-2-1h-3l-13-12q4-8 10-15l2-3 6-5q3-5 8-6h2l6 5 13 11 4 3v1l-7 5-4 4-9 11z" class="st356"/><path d="m104 107-2 3-2 1v-2l1-1-5-4-1-1 1-1h1l6 4 1-2 1 1v1z" style="fill:#7f2e26"/><path d="M111 99h-4v-2h-3l-1-3 3-4 2 1 5 4v2z" style="fill:#812f26"/><path d="M108 94q-1 2-2 1l-1-1 1-1z" style="fill:#fde4ce"/><path d="m110 98-1-1v-2l2 1z" style="fill:#fde4d0"/><path d="M107 91h-1z" style="fill:#f09e8b"/><path d="m113 95-1 2z" style="fill:#e48e7a"/><path d="m122 103-1-2q-1 1-3-2-1-2 2-5h2l5 5q1 2-2 4z" style="fill:#842f27"/><path d="M121 99h-1v-2l1-1 1 2z" style="fill:#fde1ca"/><path d="m125 100-1 1-1-1 1-1z" style="fill:#fddec8"/><path d="m111 118-1-5h-4l-1-1 1-2h4l-2-1v-2h2l2 2 4 3v1h-2l-2-1 1 4v1z" style="fill:#802c26"/><path d="m115 113-1-1v-1l1 1z" style="fill:#eb9580"/><path d="m111 106-1-2 2-1 2 1 1-1-1-2 1-2 1 1 5 7-1 1-1 1z" style="fill:#842e26"/><path d="m118 106-3-1 1-1z" style="fill:#fce1cc"/><path d="m119 108 1-1v1z" style="fill:#ed9581"/><path d="M111 104v1z" style="fill:#e08c7b"/><path d="M115 100q-1 0 0 0" style="fill:#eb9a84"/><path d="M99 114q-2 3-4 2l1-2h1v-1l-1-1-2 1h-4q-1-2 1-4 0-2 3-2l1 1-1 1-2 1v1q2 1 3-1h3q2 2 1 4" style="fill:#822e26"/><path d="M91 110v1z" style="fill:#f6a88f"/><path d="m105 99 3 4-1 1-2-1-5-4v-2h1z" style="fill:#863228"/><path d="m107 103-1-1z" style="fill:#eb9985"/><path d="M110 119v1l-1 1-1-1-5-4-1-2h2l3 2z" style="fill:#7e2a24"/><path d="m110 120-1-1z" style="fill:#e4907f"/><path d="m108 81 5-2 3 3 22 18-2 3h-1l-5 5 2 1-1 4 2 1 1-2 4-2-1-1q-4-1-1-3 2 0 2 2l1 2 4 1 2 2q2 1 1 3l-1 2q0 2-3 2l2 1 3-1q-1-4 1-4 3 0 1 2h2q-1 3-3 2l-3 2-1 1 1 1q1-4 4-2h2q2 0 1 1h-5l-1 3h1v1l-3 2v1l4-2 2-1h1l2-2h1l1-1h1l-1-2v-2c1 4 1 0 1-1v-5l-1-3h-1l-1-3h1v-2q3 4 3 9h-1v4h1v2l2 2 9 6v1l1 4v3l4 1 10 1 2-2 1-1 2-2q-2 0-1-1l9-1 12-4h1v1l-3 1 2 2v2l1 3v1l-1 1-1-7-9 2-4 2h-1v1l-6 4q-7 4-13 4l-1-1h-4v2c1 1 0 6-1 7l-2 3 12 3h6q10-1 18-7v2l-9 6 2 3 4 2 5-2 8-4-1-6v-1l1 3 1-2v2l2-1v1l1-1-1 2-1 2q3-4 8-3v2q1 0 0 0-1-2-3-2l1 1-3 2 2-1h1v1h1l-5 3-1-1v1h-1v1l-2 2 2 1-1 1v-1l-2 1-3 2-1 1h-2l-1 1-3 1h-1v11h1l-1 1h-1v-12l3-1v-1h1l1-1h1l2-1 2-1v-1l2-1 2-3v-1q-6 6-14 7-6-1-8-7c-1 0-6 2-7 1h-6q-10-1-19-6-5 7-14 11h-5l-1 2-1 4v6h-1l1-7v-2l1-2-1-1v-1l-1-1h-1l-4-3-2-3v-1h1l-1-1 1-3 1-3v-1l3-5 2-3 1-1 1-1v-1l2-2v-3l1-2v-2l1-1v-1l2-1q-1-2-4 0l-2 2-1-1 3-3h1q1-2-1-3h-4l-1 4h1v2l-2-1v-1l-3 1-3 2h-2q0 2 0 0h-1l3-1 2-2v-4l-1 1h-2l1-2 2-3-5-1-1-1h-4l-1 1v1l-2 2v3l-2 1 1 1v1l-1-1-2 2h-2l2-2v-1q9-12 22-22v-1l-25-19-7 5q-12 11-19 23v1l-1 1-3 7v1l24 19 5-9h1l1 1 1 1v1h-1l-1-1-2 3-1 1v1l-1 1v2l-1 1q-2 1-3-1l-3-2 1 2 1 2v1h-1l-1-2-1-1-2-2-5-1q-2-1-1-4l-2-2h-1q-4 0-4-3l-3-1-1-3-5-2-1-2 1-2q-5 2-6-3l-2-1q-3-2 1-4l2-1h1l1-2 8-6v-3l2-1h2v-2l3-2q1 0 0 0l-1-2-2-3-1-1-1-1 1-2 1 1 1-1 1 1v5h5-2l-1-3q-3-3 1-4l2-2h4v-1q-1-2 1-3 3 1 1 3l-1 2 4 1 1 3h1z" style="fill:#5b1626"/><path d="m167 153-2 3-1-1h-1l-1-1h1l-1-1v1l-1-1h-1l-1-1 1-1h-1v-1l1-1h2v-3l1-1v1h1v-2l-1 1-2-1h2l1-1 1 1 2-1 1 1v2q0 1 0 0h-1v1l-1-1-1 1h1l-1 1 1 2 1-1v2l-2 1z" class="st348"/><path d="m82 125-1-3-5-2v-2h1l2 1-2-2h-1v-2h4c1 1-2 3 0 5l3 2 1 1v2z" style="fill:#a94b3f"/><path d="m95 132-3-1-2-2-4-1v-2h1l-2-2 2 1 4 4zl3 2-1 1-6-1 1-3z" style="fill:#ae5142"/><path d="m87 103-1-2-1-1q-1-2 1-3l1-4h3v4l-1 3z" style="fill:#c15c47"/><path d="m72 112 1 2 2 1q-1 2-4 1 0-3-2-4l-2-1 2-1h1z" style="fill:#b45143"/><path d="M139 139v-2l2-3 1-2h1l-1 2-1 4z" style="fill:#dc7e64"/><path d="m128 113 2 1 1 1h-2l-2-1-3-1 1-1 2-2-1 2z" style="fill:#c16251"/><path d="M91 97v-2l2-1h-2v-2l3 1-2 2v1z" style="fill:#c38677"/><path d="M91 92v1h-2l1-3h2l5 2-1 1z" style="fill:#ca8673"/><path d="M130 112h-2q-2-2 1-3h1z" style="fill:#cf7457"/><path d="m131 116-2-1h-1l-1-1 1-1h2v1h2l1 2z" style="fill:#d78d72"/><path d="m135 125-3 1-1 2-3 1h-2l1-1h3l2-3z" style="fill:#b85243"/><path d="m83 101-2-1v-2l3-1z" style="fill:#c56750"/><path d="m81 113-2-3 1-1 2 2z" style="fill:#8c3838"/><path d="m87 103-1 2zl1-4 1-2v-3 4z" style="fill:#ef9272"/><path d="M138 120h-2l-2 1-1-2v-1h1l2 2z" style="fill:#dce3e8"/><path d="m135 144-3 6v-1h-1l2-3z" style="fill:#d2725a"/><path d="m143 134 1-3 2-1h2-1z" style="fill:#a1a5af"/><path d="M85 102v-4c2-2 0-4 2-4l-1 4z" style="fill:#ed8c6d"/><path d="m78 114-3-1v-2l2 1z" style="fill:#983c3a"/><path d="m85 105-1 2-1-2v-2l1 2z" style="fill:#c95e4d"/><path d="m134 121-2 1-1-2 1-1v1z" style="fill:#973e3b"/><path d="M118 124h-1l-1-1 2-2z" style="fill:#d87f64"/><path d="M72 112h-1l-2-2 2-1z" style="fill:#d57f65"/><path d="m142 124-1-3h-4 5z" style="fill:#f4b99d"/><path d="m150 118-2 1h-1l1-2v1z" style="fill:#ae6459"/><path d="M145 116v-3 2" style="fill:#b36250"/><path d="m85 85-2-1v-1z" style="fill:#c68779"/><path d="M73 109h-1v-2z" style="fill:#a45b53"/><path d="m89 86-1-1v-2h1z" style="fill:#be7768"/><path d="m133 117 1-3v3z" style="fill:#b47f73"/><path d="m80 113-2 1 1-2z" style="fill:#d7a18b"/><path d="m134 123-1 1q-1-2 1-2z" style="fill:#eddbdf"/><circle cx="96" cy="77" r="1" style="fill:#c99683"/><path d="M83 108h-2z" style="fill:#d28c78"/><path d="M74 112v1z" style="fill:#d69c88"/><path d="M78 112h2z" style="fill:#a46761"/><path d="m136 123-1-1 1-1z" style="fill:#c47f6d"/><circle cx="136" cy="108" r="1" style="fill:#cb9b91"/><path d="M144 122v-2z" style="fill:#ebbfb5"/><path d="m75 110-2 1v-2z" style="fill:#e4c0b8"/><path d="m82 104-1-1 1-1z" style="fill:#ca7163"/><path d="m83 110 1-1v2" style="fill:#d28f81"/><path d="m85 103-1 1z" style="fill:#f0a491"/><path d="M97 90h-2z" style="fill:#f1d2c8"/><path d="m101 86-1 1z" style="fill:#c9807e"/><path d="M129 128h-2z" class="st166"/><path d="m154 129-3 3-3 4h1l7-4-3 3 2-1 2-1c2 0-1 2-1 2v1l-11 14h-1l-3 2 4-7 2-4h1-1l-1 2-3-2h1v-1h-1l-4 7-1-1 15-17z" style="fill:#a19fa6"/><path d="m160 131 1 1q4-2 6 1l-2 10h-1l3-7-1-2v-1q-2-1-5 1-9 7-16 16l3-6 3-3 5-5-1-1 2-1v-1l-1 1h-1z" style="fill:#dedce1"/><path d="m160 125-4 1v1l-2 1h-1l-4 3-5 5-4 5-2 4-1-1 4-5q3-6 8-9l5-4 6-2" style="fill:#e2e0e6"/><path d="M138 146q-5 5-5 12l-2-1v-4l5-9z" style="fill:#827d83"/><path d="m141 149-3 6-2 6-1-1 1-7 6-9v-1l-1 4z" style="fill:#847e84"/><path d="m157 129 2 1-3 2q-1-1-4 1l-3 3h-1l3-3z" style="fill:#e6e5e9"/><path d="m146 143-2 1-3 5q-1-2 1-5v-1l1-2 1 1z" style="fill:#b6b0b6"/><path d="m167 133-2-2-4 1-1-1q2-2 5-1z" style="fill:#a9a5ac"/><path d="m159 130-2-1q4-3 5 0z" style="fill:#aea7af"/><path d="m156 128-1-1 5-1v-1 1z" style="fill:#aea8b0"/><path d="M134 159q-2 0-2-3v-3h1q-2 4 1 6" style="fill:#b2a9b0"/><path d="m166 133-5 3a59 59 0 0 0-17 21l-2 7-1-3 1-4 10-14 9-9q3-2 6-1" style="fill:#511323"/><path d="M164 143h-2l-3 1 1 5-3 1h-1c2-4-2-2-2 0v1l-3-1-2 1-2-1v-1q7-10 18-16h1l1 3z" style="fill:#a39ea5"/><path d="M164 143h-3 2" class="st348"/><path d="M156 150h-1l-1 1q1-4 3-3z" style="fill:#561729"/><path d="M164 137q0 3-3 3z" style="fill:#501424"/><path d="m155 145 3-3q1 2-2 3" style="fill:#511325"/><path d="M156 150q-2 1-1 3l1 1q-5 6-12 10h-7l-1-2q1-6 4-10v-1l3-1h1l-1 3c-1 2-5 9-4 10l1 1a26 26 0 0 1 5-14h1l2 1c-2 4 1 1 2 0v-1h3v1l1-1z" style="fill:#847f86"/><path d="M151 150v1l-3 2 1-2z" style="fill:#501323"/><path d="m154 154-2 3q-1-3 2-3" style="fill:#531627"/><path d="m148 159-1 2q-2 1-3-2l3-3h1l1 1q1 2-1 2" style="fill:#51111f"/><path d="M147 160h-1q-1-2 1-3l2 1-2 1z" style="fill:#bc6852"/><path d="M144 114v3l-1 2h-7l-1-1-1-5 1-1h8z" style="fill:#bb836f"/><path d="m144 114-2-3h-6q-1 0 0 0h7z" style="fill:#f1baa8"/><path d="m143 117-5 1-1-1z" style="fill:#511117"/><circle cx="137" cy="115" r="1" style="fill:#481117"/><circle cx="137" cy="115" r="1" style="fill:#f0dadb"/><circle cx="142" cy="115" r="1" style="fill:#4a1218"/><circle cx="142" cy="115" r="1" style="fill:#efdcdd"/><path d="M99 87v1l-2 2-4-1-3-1-1-1 1-5q1 0 0 0l2-1 7 2 1 2z" style="fill:#c6836d"/><path d="m99 87 1-3-1-1-7-2-2 1 1-1 8 2 1 2z" style="fill:#f8c8b4"/><path d="m96 87-1 1q-3 0-3-2z" style="fill:#541818"/><path d="M96 87h-3z" style="fill:#dfa99b"/><path d="M98 86h-1v-2l1 1z" style="fill:#4b1315"/><circle cx="92" cy="84" r="1" style="fill:#491213"/><path d="m77 111-2-1-2-3v-1l6-4 3 3v2z" style="fill:#be8472"/><path d="M78 109h-2l-1-2v-1l3-3 3 3z" style="fill:#4c1a1e"/><path d="m79 107-2-2-1 3-1-1 3-3 2 2z" style="fill:#b19491"/><path d="m79 107-2 2v-3z" style="fill:#aa9291"/><path d="M174 143h-7l1-5 5 1 9 2-3 1z" style="fill:#fdedd9"/><path d="m192 136-2 1-4 2-2 1 4-4z" style="fill:#fcf3e9"/><path d="M192 136h-4l2-2h5z" style="fill:#e7b8a8"/><path d="M222 157h-2 1v-1q-1 0 0 0v-1h-1 3zm-22-24h-3l2-1h1l2-1 1 1z" class="st348"/><path d="m220 156-4 2 2-2z" style="fill:#fadcc7"/><path d="M179 160h-4v-1h2zh4v1zm-2-16-1-1h3zm16 14-3 1 1-1zl1-1zm-23-20h-1q0 1 0 0v-1zm1 21-2-1zm-16-50v-2z" class="st348"/><path d="m211 166-3 2 1-1z" class="st228"/><path d="M173 144h-3l-1-1z" class="st348"/><path d="m207 167-2 1z" class="st228"/><path d="M156 118v-4 3" class="st348"/><path d="M204 168h-1zm5-2-2 1zm2-2-1 1-1 1v-1z" class="st228"/><path d="M180 161h-1zm4 0h-1zm-10-18h-1z" class="st348"/><path d="M122 115v1l-1 1v2h4l3 2 1-1v1l-1 1h-2v-1l1 3 1 2v1h1l-2 1v1h-1v1l1 2h-1l1 1h4l2-2 4-3h-1v-2h-1l2 1 1 1h1l-1 3 1-1h2l-3 4-3 3 2 1q0-2 2-1v2l-1 1-1-1-4-1 2-4-2-1 1-1 3 1-1-2-2 1-1 1h1l-4 1 1 2 2 3v1h-3l-2 3q1 4-3 2h-3q1 3 4 1 2-2 2 1v1l2-6 3 1 1-2 1-2 1 1h1v1l-2 1-1 3h-1l-2-2v1l-1 5h2l-1 1h-8q-1 4-4 3l-2-2q-2 2-3 1l-2-3-2-1h-1l-3-1v-4h-5v-1l1-1q0 2 2 1l1-1v-1h2l2 1 1-2-2-2h-1v-1l1-2h1v1q-1 1 0 0 0-2 3-1l-1 1q2 2 1 5t-5 2v4h3l1 2 2-1 1-1h-2q0 1 0 0l1-1-3-1c-1 3-3-1 0-1h2l1-3 2-1-2-2-1 1 1-4q0-2-1-1v-1h1v-1l1 1 2 2 3-1-2-3-3-1h-1l-1 1h-1l-1-1 2-3h2v1h3l1-2v-4l1 1 3-1v-1l-3-1-1 1h-1l1-1 1-1 1-2 1-1z" class="st166"/><path d="m112 132 1 1-1 2-1 2h1l2 2-2 1-1 3h-3v2l1-1h1l1 2h2l-2 2h-1v-1h-1l-3-1v-4l-1-1 2 1h2l2-2-1-5v-1h-1l-1 2-1-1 1-1 2-3z" style="fill:#983e39"/><path d="m118 121 1-1 2 1h1l1 1-1 1h-3z" style="fill:#d98469"/><path d="M138 140h-1q0-2 1-1z" style="fill:#d7806b"/><path d="m134 132 2 1-2 4 4 1-1 1q-2-1-2 1l-1 3-3-2-1 4v3l-1-1v-2h-6v-2l1 1 2-1 2 1q2-1 1-3 2 0 2-3h3l-2-3-1-2-2 1v-1h2z" style="fill:#a94b41"/><path d="m122 125-3 1v-2l1-1 4-1 2 2v4z" style="fill:#c86850"/><path d="m126 134-2-1v-1l-2-1v-1l-4-1 2-2h3l2 2v1z" style="fill:#d77f62"/><path d="m118 137 1 2-3-3 4-2-2-5 3 1v2h2l1 2h-1q-3-1-4 1l1 1z" style="fill:#95403e"/><path d="m119 151-2-1-1 1v-2l2-1 2-1 2 1 1 1-2 2-1 1z" style="fill:#9d403b"/><path d="m127 133 1-1 4-1 1-1 3-2 1 1-4 3-2 1z" style="fill:#b04c3f"/><path d="M128 122v4l-2-2-1-4z" style="fill:#d1775b"/><path d="M134 132q2-3 3-2v3q-1 1-3-1" style="fill:#d3684f"/><path d="M115 150v1l-1-1v-2l1-1z" style="fill:#b85d4d"/><path d="m112 146-1-1-1-1q2-1 3 1z" style="fill:#c26853"/><path d="m118 128-3-1z" style="fill:#a74842"/><path d="M131 139v-1l-1-1z" style="fill:#db9586"/><path d="M125 148h-3v-1z" style="fill:#f6c2b6"/><path d="m126 149-1-2h2z" style="fill:#f8cbbe"/><path d="M111 137h-2z" style="fill:#da8c78"/><path d="m116 137-2-2z" style="fill:#f4baad"/><path d="M123 126h-2q0 1 0 0z" style="fill:#efaa98"/><path d="M130 136h-2l1-1z" style="fill:#d48a7d"/><path d="M127 144h-1l1-1z" style="fill:#dd917e"/><path d="m128 149-1-1z" style="fill:#fad0ca"/><path d="M122 147h-1z" style="fill:#f2bcb3"/><path d="M117 138q0-1 0 0" style="fill:#efb7b3"/><path d="m126 143-2 1h-1l-2-2-2-5h1l2-2h1q1-2 4 1l1 2q1 4-2 5" style="fill:#c88a6f"/><path d="m126 143 2-2q1-3-2-5-2-2-3-1h-1 2q2-1 4 2v4z" style="fill:#f9c4af"/><path d="m124 141-1 2-3-4v-1q2 0 4 3" style="fill:#561d24"/><path d="m121 138 1 1h-1z" style="fill:#eddad8"/><path d="M126 140v2h-1v-2z" style="fill:#5a1b1d"/><circle cx="123" cy="137" r="1" style="fill:#5c1b1c"/><path d="M118 148h-2q-3-4-3-7l3-2h1c1 0 5 5 4 6z" style="fill:#c8856e"/><path d="m120 145-3 2-3-5v-1l3-1h1z" style="fill:#5a1314"/><path d="m120 145-3 1-2-4 2-2 3 4z" style="fill:#bf7f68"/><path d="M76 94h2l1 3v2l-1 2-5 4-1 1h-3l-3-3v-1q-1-3 1-4l-1-1-2 1v-2h1l3 1 2-2-1-2-1-2 1-1 1 1v4l2-1 3-1z" style="fill:#541925"/><path d="m78 101-6 5z" style="fill:#9b6469"/><path d="m78 96-2-3z" style="fill:#c47d6c"/><path d="m69 105-2-2z" style="fill:#925450"/><path d="m71 95-3 2z" style="fill:#e8a89a"/><path d="M70 92v-1z" style="fill:#ae7a79"/><path d="m78 100-4 3-3 2-4-4v-1l2-2 5-4 1 1 3 4z" style="fill:#c1836d"/><path d="M78 100v-1l-2-3-2-2-6 5-1 2v-1l2-2 5-4 4 4z" style="fill:#f7bca6"/><path d="m76 101-3 2q-2 0-1-1l2-2 1-1z" style="fill:#45161b"/><path d="M75 101h1z" style="fill:#e3d7d5"/><path d="m74 102-1-1h1z" style="fill:#e6dcdb"/><path d="m75 97-1 1-1-1 1-1z" style="fill:#471418"/><circle cx="74" cy="97" r="1" style="fill:#ead8d3"/><circle cx="70" cy="101" r="1" style="fill:#481519"/><path d="m42 201 4 2h1q13 3 25-1h1q13-6 16-18h1v2l1-2 1-1-2 4v2l-5 6-1 1-2 2-3 2v1q-9 5-19 5-13 0-21-5l-5-4-1-1-1-1-4-5v-1l-1-1-2-5H0h26v2l1 1 1 2q1-1-1-3l-1-3v-1l-1-3h1q3 15 16 23" class="st280"/><path d="M89 179q-4 16-16 23-14 4-26 1l-2-1v-1l9 1 8-2q5-2 8-6l7-12-5 1-12-1h-5v-1z" class="st102"/><path d="m28 178 1 3q3 12 13 19l3 2 2 1h-1l-4-2q-12-7-16-22v-2z" style="fill:#fddabe"/><path d="M90 184q-5 13-17 18h-1 1l7-6 7-10 2-7 2-1z" style="fill:#eeb28e"/><path d="M92 182h43v-3l1-4v-4l1-5v-1l-1-1 1-1v1l1 1 1 2-1 2v2l-1 6v1h1v3l-1 1v1H92l-1 2q-2 3-1-1v-1l1-5-2 1h-1l-8 1a189 189 0 0 1-52-1v-1 1l-2-1 2 10-1-1-1-4H0v-1h7l18-1-1-2v-3l-1-2 1-2 5-2 8-1h8l2-1h24l3-4 4-8 1-2 5-3 2 1v5l-3 4-6 8h4c4 1 13 2 13 6l-1 1v2z" class="st333"/><path d="M135 182H92z" style="fill:#9a8486"/><path d="M7 182h18v-1 1z" style="fill:#a79495"/><path d="M64 168H53z" style="fill:#877375"/><path d="M4 182H0z" style="fill:#ab999a"/><path d="m70 171-4 6H56l-28-3h-1l1-1q11-3 23-2z" style="fill:#c89073"/><path d="M70 171H43l-14 2-2 1q-1 2 3 2l8 1 36 1 8-1 6-1 2-2-1-1v1l-13-3h-1l1-1 11 2q4 0 6 3l-1 1-13 3-15 1H52l-19-2c-2 0-11-2-9-4l8-3 16-1h22z" style="fill:#fbcbae"/><path d="M89 173v1l-5 2-13 1 4-6z" style="fill:#c98f73"/><path d="m85 154-5 8-10 14v1h-2l3-6 9-14q0-3 4-4h1z" style="fill:#b2adb3"/><path d="m85 154-2 6-6 7-7 9h-1l5-7 6-7 4-7z" style="fill:#958d94"/><path d="M85 153q-3 0-5 4l-6 9-3 5 7-12 3-5q2-2 4-1" style="fill:#e5d8d8"/><path d="m46 203-4-2z" class="st102"/><path d="m55 181 22 2-2 5q-11 16-29 14h-1l-8-6q-6-6-8-15l-1-2v-1l6 2 11 1z" style="fill:#e7b28a"/><path d="m42 192 2 3q-1 2-3-1l-2-2-4-5-1-2 1-2 3 1 2 3 1 4z" style="fill:#fcd3bd"/></svg>