<svg xmlns="http://www.w3.org/2000/svg" id="Layer_1" viewBox="0 0 272 241" xmlns:xlink="http://www.w3.org/1999/xlink"><defs><style>.st11{fill:#5d182a}.st109{fill:#622329}.st129{fill:#5e1f29}.st170{fill:#f1fafd}.st208{fill:#651725}.st228{fill:#5b1e2c}.st329{fill:#e5a99d}.st436{fill:#571626}</style></defs><path d="M272 224v17h-53v-1l-2-12-2-2h-13l-74 1h-10l-1 2v12H46l-1-1 1-15 1-2h225" style="fill:#9a4f39"/><path d="M272 218v6l-19-1H56l-9 1h-1v17h-4v-23a4722 4722 0 0 1 197 0z" style="fill:#823b2c"/><path d="M218 241H118v-1l-1-10 2-2 18-1h79l2 4z" style="fill:#9b4f39"/><path d="M272 216v2H42v23h-1v-3l-1-20-1 1v22h-2v-22H21v6h1v16h-1v-1l-2-16h1l-1-1v-5H0v-1h51l18-1z" style="fill:#5c1520"/><path d="M72 208h108l22-1h70v2h-4l-29-1h-16l-14 1h-36l-15 1h-52l-23-1h-9l-18-1H41l-21 1H0v-1l50-1h22z" style="fill:#60171f"/><path d="M20 224v10l1 7H0v-18h19z" style="fill:#9b5039"/><path d="m37 223 1 10-1 8h-3v-12 11l-1 1h-8v-1l-1-16v-1h5v1-1z" style="fill:#9d5039"/><path d="M219 241v-6l-2-7h-1l-10-1h-57l-29 1c-2 0-1 5-1 7v6h-1l-1-5v-7q1-2 3-2l9-1h87l2 2q3 6 2 13" style="fill:#591520"/><path d="m272 177-29 4 29 13v2l-25-10 25 11v2l-1-1-12-5-7-3-6-3-1-2-1-1-1-1q-2-1-2-3l2-2 13-1z" style="fill:#551523"/><path d="m37 223-8 1v2l-1-2h-4l1 10v7h-1v-1l-1-16h-1l-1 1v-7h16z" style="fill:#873f2f"/><path d="M272 178v2l-23 2-1-1h-1v1l8 3v1l17 7v2l-11-5-18-8v-1l1-1 17-1z" style="fill:#c4b0b6"/><path d="M272 179v3l-19 2-5-2v-1l12-1z" style="fill:#7e747a"/><path d="M272 170v2h-35l-1-1-1-1z" class="st109"/><path d="m248 181 5 3 13-1 6-1v1l-15 2 2 1h1l12 5v2l-17-7-8-4v-1z" style="fill:#551827"/><path d="M272 185v7l-13-6h1z" style="fill:#b0a4a7"/><path d="M41 241h-2v-23h2z" style="fill:#82372b"/><path d="M24 241h-2l-1-16v-1h2l1 9z" style="fill:#a0523b"/><path d="M272 197v1l-25-11-1-2 11 5z" style="fill:#806d78"/><path d="M272 183v2l-12 1h-1l-4-2z" style="fill:#7d7179"/><path d="M34 241v-13h1z" style="fill:#7a3225"/><path d="m255 186 17 7v1l-8-4z" style="fill:#e3d2d5"/><path d="m82 200 1-1zl-5 1-10 2H53l-34-2h-1 1l15-1-17 1H0v-1h14c-6-3-1-6 3-6l6-2 1 1h1q11 6 24 5 12 1 23-6h1l6 2q4 0 7 3l-1 2h10l13 1h8l14 1h-22l-7-1z" style="fill:#b55f45"/><path d="m18 187 6 5v1l-6 1c-3 0-8 2-6 4l3 2H0v-6l7-1H0v-6z" style="fill:#dd8e60"/><path d="m11 178 1 2 4 6-16 1v-5h4-4v-4z" style="fill:#dc8e5f"/><path d="M20 224v-1H0v-5h20z" style="fill:#80392b"/><path d="m72 208-2-1H50l-26 1H0v-2h65l9 1z" style="fill:#f9ad7b"/><path d="m141 158 1-2 1 1-1 7v1h1l-1 4v1h-9v1H87q0-1 0 0l-1 3-1-1 1-2h-1l2-7v-1l1-1c2-3-3-4-4-4l-15-3-2 3-1-1 14-21v-2q-3-1-5 2l-4 6-8 14q-2 1-1-1a253 253 0 0 0-51 3q-8 2-1 4v1h1l-2 1q0 6 3 11 0 2-1 1l-3-6H0v-1h8l-1-4-1-3-1-2 1-2q5-3 10-3l6-1h2l3-1h35l1-1 1-1 2-4 5-8 4-5q4-3 6-1l1 3-5 8-7 9 5 1 9 2h1l4 2q2 2 1 3l-1 2-1 6h52v-9z" class="st129"/><path d="M12 176q5 10 14 15l1 1 5 2h2q15 3 29-1h1l5-2q11-8 15-20h1v3l1-4h9-8l-1 1h1l-2 4-1 1v1q0 1 0 0l-5 7v1l-1 1-2 2-5 3-10 5-15 2q-9 0-17-3l-10-7-2-2-2-1q-4-4-5-8l-1-1v-1l-2-4H0v-1h9l1 3 1 3z" style="fill:#5d141f"/><path d="m84 166-2 8-8 12-9 7q-1 0 0 0a53 53 0 0 1-31 1l-3-1 1-1q13 2 25-4 9-7 12-18l-25-2z" style="fill:#cf8f71"/><path d="m33 195-5-2z" style="fill:#da9c88"/><path d="m61 157-4 7H45l-34-3-1-1h2q9-3 17-3z" style="fill:#c79073"/><path d="m84 160-6 1-15 2 5-7z" style="fill:#c99175"/><path d="m62 156-50 3h-1q1 3 3 2l15 3a276 276 0 0 0 55-3q2 0 1-2l-16-2v-1l1-1 14 2q5 1 6 3l-1 2-3 1q-13 4-28 4H40l-29-4h-1l-3-3c-1-4 23-5 28-6z" style="fill:#fbcbae"/><path d="m63 157-4 6h2l1-1 3-5h1v1l2-3h1l-1 1-4 7 20-3v-1l1 1v1l-8 2-10 1a276 276 0 0 1-53-2q-4 0-4-2l1-1 8 2 38 2 4-7 1-1v1z" style="fill:#5d1822"/><path d="m88 163-1 1 1 1h-1l-2 1h-1l-1 1-9 1-30 1v1l-13-1q-10 0-19-3h-1l-2-1h1v-1l8 2 22 2h15l19-2 8-1z" style="fill:#5f1621"/><path d="m9 165 2 1h1l1 3q5 17 18 24v1l4 1h-2l-5-2a36 36 0 0 1-19-25z" style="fill:#fddabe"/><path d="m86 172-3 6q-6 11-18 16-1 0 0 0l13-12q5-7 6-16l3-1z" style="fill:#eeb28e"/><path d="M44 169h4l14 1h8l-4 8q-4 8-14 12l-10 3H31l-2-2q-13-9-16-23l-1-3 7 1 12 2z" style="fill:#e7b28b"/><path d="M28 183q3 1 2 3l-3-1-3-3-4-6-1-3 1-1q2-1 4 1l1 3 2 5z" style="fill:#fbd2bc"/><path d="m80 137-17 26-1 1h-2l4-7 12-19q2-3 5-3z" style="fill:#b3adb3"/><path d="m80 137-4 7-3 5-7 9-4 5h-1l5-7 5-7z" style="fill:#958d94"/><path d="m80 135-5 3-3 5-5 8-4 6q0 1 0 0l8-14 4-6q2-2 5-2" style="fill:#e4d7d7"/><path d="M10 177H0v-5h9z" style="fill:#db8d60"/><path d="m232 187-1 2-5 3h-1l-2-2-2-1h-5l-1-1-1-2 1-1 4-3c2-1 2 3 5 1 4-1 6 3 7 4" style="fill:#680f17"/><path d="M230 189h-2q-1-2-5-2-3 0-5-3h2l4 1q3-1 5 2z" style="fill:#bc523f"/><path d="M228 189q0 1 0 0l-3-2h-5l-3-2 1-1 1 1 3 1q2-1 6 2z" style="fill:#e88e76"/><path d="m227 191-3-2-5-1-3-1v-1l3 1 2 1h3z" style="fill:#9d3a39"/><path d="M226 184q3 1 5 4h-1v1l-1-1q0-2-4-3h-4l-2-1 1-1 4 2z" style="fill:#e88c73"/><path d="m230 188-3-3-1-1 6 4z" style="fill:#b95744"/><path d="m186 189-3 2h-3l-2 2-4 1h-1l-1-1-3-3v-1l1-2h4l1-1h3l4-1h1l3 2z" style="fill:#660d15"/><path d="M173 194q2 0 5-3c2-2 4 1 7-2v1l-1 1-5 2-4 1z" style="fill:#ba6248"/><path d="M185 188h-4l-4 3h-6v-1l5-1 2-1 3-1h1l1-1z" style="fill:#c45f48"/><path d="m178 187-3 2-3 1h-1l-1-1 3-1 4-2z" style="fill:#c25b47"/><path d="m183 186-2 1h2-2l-3 1-5 2-2 1v-1q3 0 5-2l2-1z" style="fill:#ed9378"/><path d="m185 188-3 1-4 2-5 2-1-1 5-1 3-2h3z" style="fill:#983a39"/><path d="M194 194q0 2 3 2h8c1 0 5 0 2-2h-1v-4l2-2 1-2q3 2 1 4-1 2 1 2 0-2 1-1l1 1v-5h3l1 1v1l4 2 5 1h3l4-2v-1l1-2h8l6 4 9 4-1 1-8 1 10-1 15 6v1l-33-1h-6l32 1h7v5l-38-1-73 1H72v-1l-40-1H0v-5h22a183 183 0 0 0 62-1l30 1h11l-9-1-31-1 1-2-5-3-8-1-1-1 6-5h1a476 476 0 0 0 68-1v1q2 1 1 2-3 0 0 2h4l2 1h1q5 2 11 0l1-2v-3h3v1l-1 1 4 5h5l7-4 1-1v-1l-4-3-3 1q-3-1-5 1h-7v-1l-1-1 2-3 3-5-1-1-2 1c0-4-2-1-1 1q1 3-2 4h-2l2-3q0-3-3-7l1-1 11 1 1 3q2 0 0 1h-1q-1-2-2 0 0 2 1 1 1 2-1 2l-1 1 4 1 1 1h3l2 1 1-2h4v-2q-3 0-3 2h-1v-4l3-1q3 0 2-3v-2h7l1 1v5l3 1 1 1h-4q-5 2-6 5-4 3 0 3h2l1-4h2v4l1 1v3q-4 1-1 2z" style="fill:#de8e5f"/><path d="m245 186 1 2 26 12v3l-7 1-14-1h-50 1l12-1h37l11 1h10l-3-2-7-3-5-2-9 1h-16l-6-1-7-1h3l9 1 7 1 10-1 7-1-3-1-9-5-2-2h-9l11-1z" style="fill:#b25d3f"/><path d="M150 187H79l1-1h69z" style="fill:#ad5b3c"/><path d="M113 195H99l-2-1 2-1 10-1h7v1l-1 1h1l4 1z" style="fill:#f8ac73"/><path d="M174 187h-7v-1h4z" style="fill:#b46045"/><path d="m159 199-3 2h-6q-2-3-6-1h-2l-1-1v-3l2-1 3-2h4l3 1h3l3 3z" style="fill:#610e16"/><path d="M143 201q3-3 5-1l2 1 3 1h1l4-2 1-1v1l-4 2h-8z" style="fill:#b9664e"/><path d="M151 195q1 2 3 2h3l1 1q-2 2-3 1l1-1-4 1-2-2h-5v-1l2-1z" style="fill:#bf5c46"/><path d="M151 195h-4l-2 1h4l2 1 1 1h5l-2 1h-2q-2 1-4-1t-6 0l3-3z" style="fill:#e78f76"/><path d="M154 200h-4l-4-2q-1 2-4 1l-1-1h1q3 1 5-1l5 3z" style="fill:#983939"/><path d="M189 200q-2 1-2 3h-3l-2-1q-4 2-6-2h-1l1-2 4-3 5 1h4l1 2z" style="fill:#650f16"/><path d="M176 201q2 3 5 2l3 1 3-1 2-3v3q-3 3-7 2l-4-1q-2 0-2-3" style="fill:#b8654c"/><path d="m185 198 3 1 1 1h-1l-2-1h-6 5q4 1 0 2l-2-1-3 1-3-1 3-3z" style="fill:#f29b84"/><path d="M186 202h-5q-3 1-5-2h1l4 1z" style="fill:#913132"/><path d="m188 200-2 2-3-2h4l-2-1h-6 8zm0 0-3-2 4 1z" style="fill:#c96952"/><path d="M139 193h-3q-3 2-6 0h-3l-1-1v-1l2-3c2-1 4 2 5 1l2-1h2l3 4z" style="fill:#650e16"/><path d="m139 193-4 1h-7l-3-1 1-1h2l3 1z" style="fill:#b8634a"/><path d="M128 190h10l1 1-5 1-2 1q-2-2-5-2z" style="fill:#b24d3f"/><path d="M138 190h-10l1-1 2 1 5-1z" style="fill:#e1856f"/><path d="m218 198-2 1-3-1v-1l1-2q2-1 5 1z" style="fill:#660f13"/><path d="m218 198-1 2-4-1v-1z" style="fill:#b86449"/><path d="m214 196 2 1v-1h1v2h-2z" style="fill:#ae463b"/><path d="m216 196-2-1z" style="fill:#e5896b"/><path d="m206 201-5-1 1-2h3l1 1z" style="fill:#661015"/><path d="M205 200h-3q1-2 3-1z" style="fill:#b95848"/><path d="M168 199h-4v-1l1-2h1l2 1h1z" style="fill:#660f15"/><path d="M168 198h-3l1-1z" style="fill:#ae5246"/><path d="M18 187h-8l-10 1v-1l16-1z" style="fill:#ae5d3e"/><path d="M10 177H0v-1z" style="fill:#b06141"/><path d="m0 194 13-1v1z" style="fill:#ad5a3a"/><path d="m0 182 7-1h1-1z" style="fill:#ac5939"/><path d="m251 31 1-1z" class="st228"/><path d="M59 154h-2z" style="fill:#c69fa5"/><path d="M39 154h-1z" style="fill:#c49ca1"/><path d="m232 189-1 2-4 2-3-1-8-2q-2 0-1-2l-4-1v1l-1-2h4l1 2q3 2 5 1h2q3 3 5 2z" style="fill:#bf664b"/><path d="M200 193v1l1 1h4l1-1h1v1l-4 1h-7l-4-1 2-1h4v-1z" style="fill:#bb6147"/><path d="M82 200H55l3-1h26z" style="fill:#994330"/><path d="M18 201h-3l-1-1h25-1l-14 1z" style="fill:#97432f"/><path d="M272 209v8H0v-8z" style="fill:#a0523c"/><path d="m272 213-23-2-23 1-13 2h-2l4-1 10-1 10-1h26z" style="fill:#833526"/><path d="m168 212 15 1 27-2 12-1-14 2q-20 3-40 1" style="fill:#843728"/><path d="M14 213h-4v-1h17l12-1h9l-7 1z" style="fill:#86382a"/><path d="M73 213h-5l-8-1v-1h5z" style="fill:#833528"/><path d="M236 172v-1h35v6l-29 2q-3 4 2 5v2l-13 1-4-3h-4l-3-1h-1l-4 2-1 1v1h-3l-1-1v-1l-1-1-2-2-3-2h1q3 1 5-2 3-1 1-4v-2z" style="fill:#dc8d5e"/><path d="M247 177h-21l-5-1h38l-5 1z" style="fill:#af5e3e"/><path d="M236 172h-24v-1z" class="st109"/><path d="M133 172h17l2 1-1 1-2 2-1 3v2l1 3 3 2h3l-2 2-2 1-1-2-1-1H80l6-10 1-4z" style="fill:#dc8c5f"/><path d="M85 177v1h10l18-2 17 1 10 1q-14-2-29-1l-16 1H85" style="fill:#ad5c3b"/><path d="M125 180h-19l-6 1v-1l13-1z" style="fill:#ab5b3b"/><path d="m123 182-2-1h12l7-1-3 1z" style="fill:#ae5b3b"/><path d="M163 183v1l-4 3v1l5-2h1l1 3v1l-2 1h-4l1 1h5l-8 1-4-1 1-1 1 1h3l-1-1-2-5 6-3z" style="fill:#c57c64"/><path d="m163 184 1 2v1l-5 2-1-3z" style="fill:#460808"/><path d="M159 188v-1l4-2 1 1z" style="fill:#bf8b80"/><path d="M161 187h1z" style="fill:#7b423d"/><path d="m231 150-13 7v12h14l1-9v-12l1 3v10l-1 4-1 5h5v1h-25v6l-1 1-2 1h-3l2 1 2 2 1 3 1 2 1 1q2 2-1 3v1l-1-2-1 1h-2l1-3-1-3-2 4v5h-6v-2l1-1v-2l-3-1v5h-4l-1-1q-1-2 1-2l1-3-2-1v-5l-2 3v3h-2l-2-1v-1l2-2 4-5h2l1-1 3 1-4-3-1-2v-3l-7 1v4h-2q-1 3-4 1l1 2v2q1-3 4-3l1 2-1 2h-4l-1 1-3-1h-2l-2-1h-1l-3-1v-1h3v-1h-1v-3h1l1 1h2l-2-2v-2h-12l2 3 2 4-2 2-1 1h2l2-3-1-4h2v2l2-2 1 1-1 3-3 5-1 1 1 1v4q1 2-1 2l-5 1-1-2h3l3-1v-1l-2-6h-2l-6 3 3 5-1 2-2-1 1-1h-2l-1 1-4-1h-1l-3-1 1-1h1l-1-2v-1l3 1v-1l1 3q3 1 2-2l-3-2q-2-1-2-3v-3l1-3 2-2-2-2h-16v-1h9v-1h5q1-4 4 0h5l-1-2c-2-4 6-5 3 0v2l17-2q2-3 4-1l1-4q2 0 0 1h1v3l3 1 2-2v1h1l1-1q1 2-2 2v2h10l1-2 2-1h2q2 0 1-1v-1h-1v-3l1-1q2 1 2 4v1l2 1 2-3c2-3 5 2 2 3q-3 0-2 2l2 1h6v-14l5-2 9-5zl-2 1-2 2-3 1-4 2-2 2 2-1h2l1-1 2-1h1l2-2z" style="fill:#60131b"/><path d="M151 184q1-3-1-5h-1l1-3 2 4 2 5z" style="fill:#af5f4e"/><path d="m151 182-1 1-2-3h2z" style="fill:#bd725c"/><path d="m166 189-1-3h-1v-1l-1-1v-1z" style="fill:#f9d8c7"/><path d="m156 172-3 1-1-2z" style="fill:#d98565"/><path d="m156 192-1-1 1-2 2 3z" style="fill:#893934"/><path d="m147 190 2-1q1-1-1-2h1l1 2q-1 2-3 1" style="fill:#e89882"/><path d="m169 177 1-1-1 2-2-1v-2l1 2z" style="fill:#e38e7a"/><circle cx="157" cy="166" r="1" style="fill:#cd816d"/><path d="m166 184-1-1 1-1z" style="fill:#a95a53"/><path d="M167 183v-2h1z" style="fill:#b9766c"/><path d="M154 190v-1z" style="fill:#d68677"/><path d="m152 190-1-1z" style="fill:#e38f7a"/><path d="M155 189v1z" style="fill:#a95b50"/><path d="M168 181v-1z" class="st329"/><path d="m156 189-1-2z" style="fill:#d88b7c"/><path d="m164 180-2 1-7 3-3-5q-2-4 2-5l7-2q3 3 4 7z" style="fill:#c77f64"/><path d="m164 180-2-6q-3-3-9 1l-1 4-1-4 8-3h2z" style="fill:#f9ccb8"/><path d="m162 176-1 1z" style="fill:#5b1014"/><path d="M156 179h-2l-1-1h3z" style="fill:#671b1d"/><path d="M158 181h-1l-1-1 1-1 4-2 1 2z" style="fill:#3e080b"/><path d="M159 180h1l1 1zm0 1h-1v-1l1-1z" style="fill:#f6f1ef"/><path d="M157 181v-1z" style="fill:#dbbebd"/><path d="M175 180v-1l1-2v-1q4 0 5 3v3l-2-1h-3z" style="fill:#c57a5d"/><path d="m176 177-1 1-1 2h-1v-1l1-2z" style="fill:#f3bda6"/><path d="M186 181h-2v-1h2z" style="fill:#b55549"/><path d="M186 176v-3z" style="fill:#d98976"/><path d="m174 171 1-2z" style="fill:#e9c0b7"/><path d="M173 177v-2z" style="fill:#c66f64"/><path d="m185 171-2 4h-2l-7-2 1-5 2-1q5 0 7 3" style="fill:#c98168"/><path d="m185 171-6-2-2 1 1-1 8 2z" style="fill:#faccb8"/><path d="M181 174q0 2-3 0l-1-1h1z" style="fill:#480b09"/><path d="m181 174-3-1z" style="fill:#f3d0ca"/><circle cx="183" cy="173" r="1" style="fill:#4e0d0c"/><path d="M177 171h1v1z" style="fill:#3b0707"/><path d="m205 181-2 7-9-2 1-1 7 1 1-5-5-1 1-1z" style="fill:#aa6d65"/><path d="M200 193h-2v-4l3 1q1 2-1 3" style="fill:#dc8a61"/><path d="m200 180 5 1zh-2l-1 5-1 1q-1-4 1-8z" style="fill:#c98b78"/><path d="m207 187-1 2h-1l1-4 1-3z" style="fill:#aa5a4e"/><path d="m210 174-1 3 1 1q0 2-2 1zl1-2z" style="fill:#ae5c4d"/><path d="M201 167v-3l1 1 1 2z" style="fill:#f2c5af"/><path d="m192 182-1 1h-1l1-2 2-2z" style="fill:#d69c91"/><path d="M205 194h-4l2-1z" style="fill:#ed9c85"/><path d="M197 193h-4l3-2z" style="fill:#ee9c85"/><path d="M200 180h-3l-2 6 1 1-1-2 2-5v-1z" style="fill:#efb9ad"/><path d="M190 187v-2l-2 1q0-2 2-1l1 1z" style="fill:#c76e5d"/><path d="M210 190v2zl1 1v2z" style="fill:#cc7664"/><path d="m204 180-4-1-1-1z" style="fill:#af645c"/><path d="M197 191h-2l1-1h1z" style="fill:#be6c5c"/><path d="m206 169-3-1q3-1 3 1" style="fill:#d38a7c"/><path d="m209 183-1 2z" style="fill:#c57868"/><path d="M210 186v-1zv2h-1z" style="fill:#dd8f7d"/><path d="M210 174v-3l1 2z" style="fill:#db937e"/><path d="m212 175-1 3z" style="fill:#cd8270"/><circle cx="202" cy="163" r="1" style="fill:#c77c68"/><path d="M202 191h2v1h-2z" style="fill:#a8574f" transform="rotate(-1 203 192)"/><circle cx="210" cy="165" r="1" style="fill:#c77d67"/><path d="m211 174-1 4z" style="fill:#d68c84"/><path d="M204 191h-2v-1z" style="fill:#9c4d45"/><path d="M205 190v2z" style="fill:#ce786a"/><path d="m195 174 1-3z" style="fill:#f0b5ab"/><path d="m194 181 1-1z" style="fill:#d08a83"/><path d="m209 171-1 4-1 3h-5l-6-1v-1l2-8z" style="fill:#c57b62"/><path d="m209 171-11-2-1 3-1 5v-1l1-7 2-1z" style="fill:#f6bda7"/><path d="M202 178h5l1-3-1 4h-1z" style="fill:#a25851"/><path d="m204 177-5-1v-2l5 1z" style="fill:#420b0b"/><path d="m202 175 2 1v1l-4-1v-1z" style="fill:#f8ebe8"/><path d="M202 175h-2v-1z" style="fill:#c59992"/><circle cx="206" cy="174" r="1" style="fill:#300706"/><circle cx="206" cy="174" r="1" style="fill:#eed7d3"/><circle cx="199" cy="172" r="1" style="fill:#340606"/><path d="M199 173v-2h1z" style="fill:#ebd0cb"/><path d="m199 181 5 1-1 6-7-2h-1l2-5z" style="fill:#35080a"/><path d="m203 187-7-1 1-4 1-1 6 1z" style="fill:#99878a"/><path d="M200 183h-1l-1 2 2 1-2-1 1-3zv4-3" style="fill:#230c0f"/><circle cx="149" cy="170" r="1" style="fill:#eb997c"/><path d="M233 160v-5h1z" class="st11"/><path d="m246 43 1 2 1 5-1-1-3-5-4-2q-5-1-10 2v-1l2-1 6-2h2q4 0 6 3" style="fill:#fdbed7"/><path d="m234 38 1-2h1l3 1z" style="fill:#e1cec9"/><path d="m254 52-4-3 3 1zm3 4-1-1z" class="st11"/><path d="m250 32-1 3-2 1-5 2 4 2 4 6 5 4q4 2 4 6v2l-2 7-2 9-2 2h-3l-5-3v3h-1v-3h3v1h5c2-1 0-5 3-11l2-2v-7h-1l-1-2h-1l-4-3v1h-1l-2-5-1-2c-3-5-11-4-15-1h-1q-2 0-1-2h3l1-2h2l2-1h-2v-1l1-1h6q4 1 7-4z" class="st228"/><path d="m256 54-1-2v1zq1 0 0 0" class="st11"/><path d="M250 27v-2z" class="st228"/><path d="m251 22 1 1v2h-1l-1 4h2v1l-1 1-1 1-1 1 1-1h-1l-1 1-2 1-4 1q6-1 8-7v-3l-1-1-1-3v-1l3 1" class="st11"/><path d="M252 25v4h-2l1-4zm-49-7q0-1 0 0l-1-2z" class="st228"/><path d="M238 35h-3v1l-1 2v-1l-2 3-3 1 1 1 3-1 1-1h8l2 1 2 2h-1q-7-6-15 0h-1v-1l-5-1c-4 0-14-4-17-6l-5-3-2-1v-1h1l1-1q0-1 0 0l3 2-1 1 3 2v-1l9 4 5 1 3 1 6 1 1-1 3-6-6-5q-10 0-16-6h-7l-1-1-1 1v-2l-1-1q-1-1 0 0l1-1 4 2h4v-6q1 8 9 10 6 3 12 0h1l-3 3q4 5 10 5l-3 1-1 1z" class="st11"/><path d="m207 33-3-1-1-1 2-1zm1-12h-3l1-1z" class="st228"/><path d="M248 20q0 3-2 5-7 4-11-2l1-2h-2l2-5q-4 4-10 4-11 1-15-8-2 3-6 2-6-1-7-6l5-5q5-1 9 1l-1 3 2-2 5-3q8-1 14 3t7 10v3l2-2q4 1 7 4" style="fill:#fde8d1"/><path d="m248 21 2 4v2q-2 8-8 8h-6v-2l3-1q-4 0-8-3l-2-2 1-1 2-2c-8 4-18 0-21-8l1 4h-1q-5 1-8-2h-1q-2-1 0 0v1l2 1-1 2-5-4q-3-5 0-10l2 5q3 2 7 2l2-1 2-2q5 10 16 9 6 0 9-5l-1 5v1h1l-1 2q4 4 9 3 4-1 4-6" style="fill:#e4b99d"/><path d="m216 37-7-3-1-1q-1 0 0 0l-2-1v-1l-3-1v-1l3-7q0-1 0 0v-1l3 2 4 1 7 4 5 2v3q-2 5-8 4" style="fill:#fce8d1"/><path d="m200 30 2 2-9 1 5 2v1l-4 2q-5 2-6-2l2-2q-11 4-17 13l-4 7-3 4-1 2-1 1-4 3q-3 3-4 9l-1-1 2-5q2-5 6-8l3-4c3-4 3-7 8-12l5-5q9-7 21-8" style="fill:#fcc2d9"/><path d="m251 22-3-2h-1q-2-3-5-3-2-2-2 1h-2q0-10-9-15-9-3-17 4-2 0 0-3-8-3-14 4v1q-3 8 4 12l1 1 1-2 1 2-3 7q0 2-2 1l-1 1q-9 0-17 5-10 8-14 18l-6 6q-5 5-6 12v1h1l5 6q2 2-1 3l-1-1-3-5-20-16v-1l-1 1-2-2h-4q-3 1-4-2l1-4-6-1-1-2 1-3-20-15q-3-4-10-3h-3l-14 9-4 3Q56 54 49 72v1q-2 11 6 18l53 44 1 1q9 5 19 1l5 1 1 1h1l-2 2q-2-2-4-1h-3q-5 2-9 1l-6-1-8-5-2-2-1-1-2-1-12-11-13-10-11-10-9-7-1-1-2-2-4-8v-7c0-3 2-10 4-12l1-3 8-13 1-1 2-1 1-2 4-4 3-2 11-8q8-5 16-3l5 2 8 6 4 4 3 2 6 5q4-3 9-2l7 3 4 5 2 2 4 5 4 4 2 2 6-7 5-6 3-6-3 2h-3l-2-1q-3-1-1-4l3-9 2-5 3-2 3-1h4c1 0 4-4 7-4h4q5 2 7 7l2 1 3-1h2l2-4-4-2-2-3-2-5 2-8 1-1q4-4 10-4h1l2 1 3 1 5-3h8l5 2 5 3 3 4 1 3v3q4-1 6 1l2 1 3 3z" class="st228"/><path d="M191 28v1l-4 1-2-2v-1l-3 1-6 7q-6 6-13 8v-2h1l3-8q2-5 6-4v1l3-2h1l3-3q6-2 10 3z" style="fill:#fd9bb1"/><path d="M185 28q-2-1-5 2l-2 5-8 7q-5 3-8 2l1-2 7-2 6-5 3-4 4-4 3 1z" style="fill:#ed6985"/><path d="M173 29h-2l-2 1q-2 1-2 4l-3 7h-1l2-7 1-3q1-3 4-3l4-1z" style="fill:#fcbfd8"/><path d="m191 28-2-1-3-2q-3-1-5 1l-3 2h-1l5-4h5z" style="fill:#fdc0d6"/><path d="m181 33 3-4 2 2z" style="fill:#da526e"/><path d="m154 67-1 3-14-12 2-5q5 8 13 14" style="fill:#fc9aae"/><path d="m154 67-4-4-3-2-5-7v-2l2 3z" style="fill:#fdbfd8"/><path d="m88 28-2 1-5 2-4 2-2 2-3 3-2 1q8-8 18-12" class="st170"/><path d="M200 115q-9 1-18-3l-1 1q1-4-2-6l-2-2 3 1-6-5-7-4-1-2v-3l9 6a56 56 0 0 0 34 6q11-1 19-7a28 28 0 0 0 9-31l-3-15-1-3v-1l2-1 3-1v13q0 6 5 11v2l1 7-2 13q-9 17-29 18l-10 2q-1 0 0 0l1 1z" style="fill:#ec6c87"/><path d="M208 22h4l2 1 7 4h7q3 4 6 5l-2 7-2 1h-3l-11-3h4q4-2 4-6v-1l-5-1-7-5-6-2h-1v-1z" style="fill:#e7bb9f"/><path d="M210 22h-2z" class="st228"/><path d="m229 36-1 1-1-1 1-2 2-3z" style="fill:#56181d"/><path d="M257 55v3l-4 13-1 2h-3q-5-2-6-6-6-8-4-17v-4l1 2q-1 7 2 13l5 8 2 1q2 0 3-3l2-4 2-4z" style="fill:#ee6c8a"/><path d="m200 115-3 4-13-2-4-1v-3l9 2z" style="fill:#fda1b4"/><path d="M230 43h2c3-2 10-3 12 1l4 6h1v2q1 2 1-1l6 4h1v3l-4 7-1 3c-2 5-6 0-8-2q-6-9-5-19v-1l-1-1h-2l-4 3 2 8 2 10q5 13-3 25-9 13-25 14a57 57 0 0 1-43-11v-4l-1-5-2-6q-1-4-6-6v-1q1-8 9-13l3-4q7-16 22-21v1l-1 1c0 3 6 2 8 1 3-2-2-4-4-3v-1l9-1h1q11 8 26 10v1z" style="fill:#fc9caf"/><path d="m254 52 1 2h1v2h-1q1-1-2-3l-3-2h-1v-2z" style="fill:#fcbad3"/><path d="M250 50v2l-2-3-1-5 2 4z" class="st11"/><path d="M218 48q7 5 4 8 0-2-7-5v-2z" style="fill:#58192a"/><path d="M218 78c-1 2-9 2-9-1q2-2 8 0z" style="fill:#fcc0d6"/><path d="M185 43q-2-1-7 1h-1v-1q6-6 8-2z" style="fill:#5b1929"/><path d="m170 65-1 1q-4-1-4-4c1-1 6 1 5 3" style="fill:#fcbfd7"/><path d="M202 37h-2v-1l2-1 1 1z" style="fill:#fdc1d6"/><path d="M220 75q-7-2-14 0h-2l2-1-2-3q-1-4 2-9l3-4q5-2 9 1 5 7 0 14z" style="fill:#58182b"/><path d="M212 73q3-3 2-7-2-3-5-3l-3 2q1-4 4-5h6q3 3 3 7l-2 6z" style="fill:#fdfbfd"/><path d="M209 65v2h-2v-3z" style="fill:#fdfcfc"/><path d="M196 101q0 2-3 3-6 0-7-4l5 1z" style="fill:#ef7a8e"/><path d="M195 101q-4 2-7-1h3l1 1z" style="fill:#ba3b52"/><path d="m210 87-2-2h-1q-2 8-10 12t-14-4l-2-5-4-3q-6-1-9-7-2-4 0-9l5-5-1-1-3-2h1q-1-6 4-11 4-3 8 0 2 7-1 12 8-1 14 4l2 2q-4-4-9-4l6 5q6 9-1 17l8-2 4-2h-1l-1-1q5 0 6 3z" style="fill:#5a152b"/><path d="M175 57q-3 2-2 5l1 2-3-2c-1-1 0-8 5-11l3-1q4 3 3 7l-2-2h-3l1 2-2 1z" style="fill:#fdfdfd"/><path d="m195 77-2 6q-5 3-13 1-11-2-11-7l4 2 5 2 7 2q7 1 10-5z" style="fill:#de526f"/><path d="M201 92q-4 5-10 4l-3-1v-1l6-2z" style="fill:#fd777d"/><path d="M201 92h-3l-4 1-4 1h-2l2-1 5-3z" style="fill:#f84a5b"/><circle cx="178" cy="61" r="1" style="fill:#faf1f6"/><path d="M192 70q3 3 3 7-2 8-10 6l-7-2q-5-1-9-4v-2q1-5 5-8 9-3 18 2z" style="fill:#f97688"/><path d="m192 70-2-2-8-2-6 1q-4 3-6 8l1-5 4-4q6-3 12 0l5 2z" style="fill:#fcb1c5"/><path d="M188 72c3 3 3 9 0 9-4 0-3-9-1-9z" style="fill:#5b162b"/><path d="M176 76h-3q-2-4 3-7h2q1 3-2 7" style="fill:#58162b"/><path d="m164 98-1-3v-5l-1-5 1-1-1-2 1 2 1 1 1 4v9z" class="st228"/><path d="m229 144-5 4-3 1-4 2v-1l-1 1q-6-3-8-8h1v-1q6-2 11-7l-11 6-4 1-6 1h-11v-1h-4l-3-1-4-2v-1l1-2h2q7 2 16 2 8 0 15-5 6-4 9-10 2-6-3-8h-7l4-3h5l7-3 3 20 3 13z" style="fill:#ec6f89"/><path d="M209 143h-2l-2-1 12-5 3-2h1-1l-2 3-6 3z" class="st11"/><path d="m219 138-1 2q-1 0 0 0v-1z" style="fill:#720d22"/><path d="M192 145h5l10-1q2 6 9 8 8-1 15-7l2-2v3l-3 3-9 5-5 3v13h-6l-3-1v-1l2-2 2-1-1-2-2 2v1l-2 1-2-1-1-2v-2h-3v-11l-1-1h-12q-5 0-10-3-2-3-5-2h-1l-2-1-3 3-1-1q-3-2-4 2l1 2q1 0 0 0l-3 3h-1q-3-2-3 2l-2 1-6 1q-3 0-3-3l1-3h6q6-1 10-6l4-5 3-3q10 6 22 8z" style="fill:#dcb89f"/><path d="m177 147 1 2 2 1 1 2v3l-4 2-3-3c-3 0-1-3-4-4l-1-1 1-2 2-2 1-1q3 0 4 3" style="fill:#590c15"/><path d="M180 152v1l-1 1h-1l-3-3-1-1-3-3 1-1 4 3 3 3z" style="fill:#b74d3c"/><path d="m178 155-1-1-2-1-2-3-2-2 1-1 2 2 4 4q2 0 1 2" style="fill:#b85042"/><path d="M180 153h-1l-3-3-3-3v-1q3 0 3 3z" style="fill:#8f332f"/><path d="m179 154-4-5q-1-2-3-2v-1l3 2q1 4 4 4z" style="fill:#e78970"/><path d="M180 152v1l-5-4-2-3h-1l1-1 3 3z" style="fill:#e78971"/><path d="m159 153 1 3 1 2q1 1-1 2h-4l-1-2v-3l-1-2 4-1z" style="fill:#600f17"/><path d="m158 153 1 5h-3v-6z" style="fill:#ad4a3e"/><path d="M158 153q0 3 2 5l-1 1-1-2z" style="fill:#e78c71"/><path d="m179 136 1-8 1-1a32 32 0 0 0 29-11h7q3 0 3 2l1 5-5 8-3 2q-7 5-15 6-9 1-19-2" style="fill:#fc9eb1"/><path d="M233 150v9l-1 10h-14v-12l8-4 5-4z" style="fill:#ec728b"/><path d="m166 147-1 2-3 1-1-1q-1-3 1-4h3z" style="fill:#5d131a"/><path d="m165 148-2 1h-1v-3h2z" style="fill:#d07a58"/><path d="m172 145-3 3v1l3 2 2 3q2 0 3 3 6-2 3-6l-3-2v-2l5 2q9 2 17 1l1 1 1 7v9h-2l-2 1-1 2h-10l-1-1 1-1 2-1v-1l-1 1h-1v-1l-1 1-1 1-4-1 1-2-1-1h1v-1l-1 1-1 3q-2-2-4 1h-1l-1 2h-16l1-2v-3h-3l1 3v2h-5l-1-2-2 1v1h-6v-6l2-10 1 2h8l2-1v2q0 5 4 3 3 0 2-2-2-1-2-4v-1l3-3 1-1 2-1 1-1 3-4z" style="fill:#fdedd8"/><path d="M181 164v-2z" style="fill:#a38777"/><path d="m170 168-5-1-1-2 1-3v-3l1-4h4l1 1 1 3q1 3-1 6z" style="fill:#641017"/><path d="M167 156h1v1l1 3-2 5 1 1s2-5 1-6l-1-2v-2h1l1 7-2 4-4-1 2-4-1-6z" style="fill:#ae4b3d"/><path d="M169 156v7l-1 4-1-2q3-3 1-7z" style="fill:#e58b72"/><path d="M168 156v3l-1 7h-1l2-6z" style="fill:#e38a72"/><path d="M195 162q-1 3-3 2l-1-1v-2c2-2 0-4 2-6l2 1 2 2v1l-2 2z" style="fill:#5b0c10"/><path d="m195 159-1 2-1 1 1-1 1-5h1l1 2z" style="fill:#e48169"/><path d="M195 159q0 2-2 3h-1l1-1z" style="fill:#b04a3e"/><path d="M194 156v1l-1 3v1q-1-5 1-5" style="fill:#a94b3c"/><path d="M187 158h-1l-2-2 2-1z" style="fill:#5f1416"/><path d="M186 158h2z" style="fill:#c06e5a"/><path d="M187 123h-8l1-4 1-1 5 1 11 2z" style="fill:#fdeed9"/><path d="M180 127v-2h11l12-5 6-4q-2 4-6 6-7 5-16 5z" style="fill:#fcc5d4"/><path d="M239 46v1q-2 17 10 26h3l2-8 3-7h1l-1 4q-4 5-4 11l-2 2-2-1h-2l-1-1h-1v4q1 7-1 14l-2 4q-4 9-13 13v3l1 8 1 9 3 10q2-5 7-6 5 0 6 5 2 3 0 7l-3 2-4 1h-5l1 7v2h1l-1-2q1-6 7-6 5 2 5 8l1-1 2-2q3 1 0 7l-5 2-3 1-8 1-1 6h1l1 1h-4v-1l2-11-1-9-1 1h-1l-5 3-8 3 1-1 11-7v-1l3-2v-2l-2 1-2 1q-2 0 0-1v-1l2-2-4-23-1-9h-1l-10 3-5 2-1 1-6 5-11 4h-4q-4-1-1-2h1l6-2-10-2-4-1-1 1h-1v-3l1-2q1-1 1 1v1l4 1 13 2 2-3h1v-1l3-2q-2 0-1-2l14-1q24-4 27-28l-1-11v-1q-8-9-5-22l-1-2-3 2h-1q3-4 7-3z" class="st11"/><path d="m242 161-5-2v-1l4 1q3-2 3-5l-2-2-1 2 1 2-1 1q-3-3-1-5l3-2 3 1q2 5-3 10" style="fill:#faa8b5"/><path d="M246 139h-2l-2-1q-4-1-7 4l-1-1c2-4 7-9 9-6z" style="fill:#f5dcc5"/><path d="M246 139v3c-1 3-7 4-10 3v-1l6-2 2-2 1 1-1-2z" style="fill:#e8c5ae"/><path d="m208 115-3 2-4 2-3 1 5-5 4-1z" style="fill:#fcf2e8"/><path d="m242 161-6 1v-4 1l3 1z" style="fill:#f26e85"/><path d="M208 115h-5l3-2h5z" style="fill:#e8b9a8"/><path d="M242 139c1 1-4 3-6 3l3-2z" style="fill:#fadcc7"/><path d="m246 160 1-2 3-2q0 4-4 4" style="fill:#f79dad"/><path d="M180 125v1l-1 9-2 3-3 1-1-1-4-3-1-1v-2l-2-1 2-1h2l1-2v-2l-1-1-1-2 3-1h3l3 1h2l1 1z" class="st11"/><path d="m117 50-3-2-2-1-5 2-16-11v-1h-2c-4 1-10 7-11 5q-1-1 1-3l9-6h6l3 1 5 4 10 8z" style="fill:#f6fbfe"/><path d="m140 75 3-3 7 6q5 4 4 9l-1-1-3-3z" style="fill:#f3fcfe"/><path d="m91 37-1 1-8 14h-1l-1-1 1-1 6-11 2-3z" style="fill:#7b99a6"/><path d="m79 56-8 8-2-1 8-9z" style="fill:#7d99a4"/><path d="M120 49q3 3 7 3v4l1 2h4l3 3v1h1l1 1 19 15q6 9 5 18l1 5v1l-3 2 1-3v-1l-1-1h-3q-3-2-4 2l-2-1 1-2 3-2 2-1c2 0 2-3 0-1v-2q-3 0-2 4l-2 1h-3l-2-1q-2 1-1-1h4l1-2q3-2 0-5l-1-1-2-2h-3l-3-3c1-3-4-2-1 0q2 0 3 2l-1 1-4 1-1 2v4l-1 1v-1l-1-4h-2v-6l-1-1 6-5 1-1q0-1 0 0h1l13 12q1-4-3-8l-8-7-1-1-25-20v-1l-17-13q-6-7-13-3c-3 1-9 5-9 7q0 2 2 1l9-5v1l-9 14q-1 3-2 1v2h-1v1l-7 8h-1q1 1-1 1l-2-1q-2 4-5 1v1l-2 2h-2l-2-1h-1q0 1 0 0v-1q5-13 17-24l2-1h-1l6-5c6-3 14-8 21-4l10 7z" style="fill:#c6dee4"/><path d="m135 136-1 2-1 1-2-1-3-1-6 2q-9 1-15-4l-10-8-21-17-18-16-5-4q-4-4-5-10l1-8 1-2 3-2v1q-4 10 2 19l56 46q9 4 17 0z" style="fill:#d1e5ec"/><path d="m161 82 1 3h1v12l1 1 1 2-3 2v-1q-2-4-1-7 1-11-8-18l-5-4-13-11 1-1 1-1 8 7 11 9z" style="fill:#f2fcfd"/><path d="M91 28h3q0 2-3 1h-1l-12 7-5 5-4 3c-7 8-11 13-15 23l-1 1h-1l-1 2-1 1-1 2v-1l5-13 12-16 4-3 2-1 5-5z" style="fill:#e3f3fa"/><path d="m107 49-2 2-5 4-2-2q1-2-1-2l-4-2v-2l2-2v-1l-2-1-1 2 1 1-1 3q-4-2-7 0-1 3-2 2v3l1 1q-1 2 1 3l3 1v1l-4-1-2 1-2-3 1-4 3-4 7-12 7 5 7 5z" style="fill:#c5dee3"/><path d="M83 63q-2 0-3 2v3l-2-1-3 2v3l-3 2v-1l2-2-1-2q1-2-1-4l4-4 3-4 1-1 2 4 1 2z" style="fill:#c8dfe4"/><path d="m120 49-10-9-11-8q-3-2-7-1-8 1-16 7l-3 3h-1l8-7 8-5h4l2-1h-3 4q3 0 7 3l7 5 12 10z" class="st170"/><path d="M137 59v1l-2 2-3-3-1-1h3z" style="fill:#b5b5bb"/><path d="M54 67v9h4q0 3 3 2l1 1h2q1 0 0 0v2l-1 1-3 2h-2v3l3 1 1 3 1 1 3 1 1-1v1l1 4 4 1 2 1q0 3 2 4l3 1v2q2 3 5 1l3 3v5h1l5 1c4 1 3 2 5 3v2q1 3 4 3l3-1v4l1 2h2l3 1h2l1 2 2 2 2-1 3 2h2l3-4 5 1h1l4-1q1 0 0 0l-2 5q-3-2-7-1l-4 1h-7q-3 0-7-3l-5-4-8-7-3-2-10-8-7-6-3-2-4-4-7-6-5-5-3-2-3-9z" style="fill:#879fac"/><path d="M148 107v2q-2 0-2 3l-1 3-1 1-2 2v-1l-3-1 3-3 1-1q1 2 1-1v-1l2-2h-3l5-4 1 2z" style="fill:#ae4c3e"/><path d="m151 102 1 1-3 2-1 2h-1v1q0-2 2-2l-1-1-4 2v1l-1 2q-1-3 1-5 4-4 7-3" style="fill:#c96e55"/><path d="m141 104-1 1-3 2-3 2-4 2h-1l-1-3 6-1 3-2z" style="fill:#c25a45"/><path d="M141 104v2l-4 2-1 2-5 1-1 1-1-1 7-3 1-1 2-2z" style="fill:#e28669"/><path d="m140 103-4 1q-1 3-4 3h-4l1-1q4 0 7-4z" style="fill:#e48566"/><path d="M134 86v1l3 1v5q2-1 0 0v2l2 2-1 1-1-1-2-2 1 4h1l-1 2h3v1q0 2 0 0h-2l-4 4h-2l-2 1-1 1 1 1v2l1 1 2-1 4-1 5-4v-2l-1-1v-1l2 2q1-1 1 1h1l-1 4 1-1 2-1-1 3h-1l-1 2-1 1-3 3 3 1 2-1v2l1 2-1 1-1 1-1-1q-1 0 0 0v-3h-1l-3-1q-2-2 1-4l-2-2h2v-1q2 2 3 1l-1-3-2 2h-1v1q-2 3-5 2 3 0 2 2l2 4h-4l-1 4v1l-1 1q-2 2-3 0-2 2-4 0 2 4 5 2 2-2 3 1v2-6h1q-1-2 1-2l3 2 1-3 2-2h1l1 1v1l-3 1-1 3-1 1-3-2v1l-1 5h2v1h1l-1 1h-9q-3 4-5 3l-3-2q-2 3-4 0l-2-3-3-1q-3 2-4-2v-4q-5 4-7-3l-1-1-3-2-6-2q-2-1-1-5l-2-2-6-1v-3l-4-1-1-3-1-1-5-2-1-2v-2h-2l-2-1h-1v-2h1c1 2 6 0 4-1l-3-1v-2h1q1-2 2-1l2 1h-1q0 3 2 2v-1l2 1q1 1 2-1l1 1v-1 1l-1 2 1 1-2 2q1-4-3-3h-1q0 4 3 4l-1 1-2-1v2l5 1 1 1h1v3l2 1v-2l-5-4v-1h2v-1l29 23 8-14h3l-1 1h4l1-2v-1l-1-3 1-1 1 1 4-1v-1l-3-1-2 2-1 1-1 1-1-1 1-2h1l5-7h1l2-1 5 2 3 1h2v-2l-3-1h-3l-1-1v-1h-1l-1-2q2-2 4-1h1q-3 3 1 3l1-3h-1q2-1 2 1z" class="st208"/><path d="M70 90v1l3 2v1l2 2 4 2v3h-3l-1-3v-1l-3-3h-1q2 0 0 0l-2-2v-3z" style="fill:#9b4039"/><path d="m71 95 4 3-6-2v-2z" style="fill:#c2624b"/><path d="M69 86v1l1 2-3-1v-2z" style="fill:#983c3a"/><path d="M67 86v2l-1-1z" style="fill:#d69c88"/><path d="m110 124 1 1 1 2h2v1l-1 1-1 1-1-1v-1h-4l-1-1v-5h-1 5l1-2q2-4-1-6l1-2-2 1-1 2-1-1 1-1 3-4 1 1v2l1-1 1 1-1 1-1 4 2-1 2 2-3 2-1 3zv3z" style="fill:#9b403a"/><path d="M139 111h-1l2 2q-4 2-2 4l4 1-1 1-3 2-1 3-4-2v2h-1l-1-1q3-2 2-4h4l-2-3-1-3h-4 1l3-1q3 1 4-2z" style="fill:#ac4d42"/><path d="m83 104 4 3 4 3 2 1 4 4-1 1-7-2v-3h2l-3-2-3-3h-4v-3z" style="fill:#ae5142"/><path d="m109 121-2-1-4 1 1 1-2 1q-2 0-2-2l-2-3-1-3 4 4h4l2-3 1 2 3 1z" style="fill:#b15344"/><path d="M124 102q-1-1-3 1l-1-2 2-1 4-1 2 2 1 4z" style="fill:#c86850"/><path d="m129 113-2-1v-2l-3-1v-1q-1-3-5-1l2-3 2 1 2-1 2 2v2z" style="fill:#d77f62"/><path d="M120 116v3q-1-3-4-4h1l4-3q2-2-2-5l4 1v2l2 1 1 1h-1l-4 1 1 2z" style="fill:#943f3d"/><path d="m120 133-1-1-2 1v-3h2l3-2 2 2 1 1-2 2-1 1z" style="fill:#9c3f3a"/><path d="m133 124-1 4v2h-1v-3l-4 1-3-1v-2l1 1 3-1 1 1 3-2z" style="fill:#943f3c"/><path d="m118 113-2-4-3-2 2-1 4 2 2 3z" style="fill:#cc6d54"/><path d="M133 104v-5h1l1-2 2 5-2 2z" style="fill:#df8062"/><path d="m131 88 1 1 3 2v1l-2-1-2-1-5-1 2-3 1-1v3z" style="fill:#c56856"/><path d="m130 112 1-1 5-1 1-2 4-3 1 1-5 4q-3 2-7 2" style="fill:#b04d3f"/><path d="m118 101 1 1-1 2h-5l-1 1 1-2 2-2z" style="fill:#b85848"/><path d="M119 97q-1 0 0 0l2-3 1 2 2-1 1 3h-1l-4 1z" style="fill:#d98369"/><path d="m133 83-1 4-2-1-1-2 1-1z" style="fill:#cf7457"/><path d="m113 107 1 1 3 3 1 2h-2l-1-2q-3-1-3-4z" style="fill:#ba5b48"/><path d="m135 92-1-1-1-1h-2l-1-2h3l1 1h2l1 3z" style="fill:#d78d72"/><path d="m139 102-3 2-1 1-4 2h-3l3-1 3-1 2-3z" style="fill:#b85242"/><path d="m131 98 1 4h-1l-2-3-1-4z" style="fill:#d1775b"/><path d="M139 111q2-3 3-1l1 2v1z" style="fill:#d3684f"/><path d="m116 133-2-2v-2l1-1q2 2 1 3z" style="fill:#b85d4d"/><path d="m132 98 1 6h-2v-6z" style="fill:#b1493a"/><path d="m138 98-2 1-1-3 1-2v2z" style="fill:#973e3b"/><path d="m118 113-2-3-2-1-1-2q1 2 3 2 2 1 2 4" style="fill:#e59070"/><path d="M119 101h-1l-1-1 1-2 1-1z" style="fill:#d87e64"/><path d="m112 127-1-2 3 1z" style="fill:#c26853"/><path d="M83 104h-2l-1-3 1 1z" style="fill:#893334"/><path d="M119 105v1q-4 1-3-1z" style="fill:#a74842"/><path d="m142 121-1-1 1-1 1 2z" style="fill:#d7806b"/><path d="m129 130-1-2h2q-2 0-1 2" style="fill:#f8cbbe"/><path d="m127 130-3-1h2z" style="fill:#f6c2b6"/><path d="m143 112 1-2z" style="fill:#d67761"/><path d="m111 117-2-1 1-1z" style="fill:#d88977"/><path d="M117 116v1l-3-1z" style="fill:#f5baad"/><path d="m133 117 1 1h-1z" style="fill:#f5b8a4"/><path d="m125 104-3-1h1z" style="fill:#eea998"/><path d="M134 115h-2l1-1z" style="fill:#d48a7d"/><path d="M130 125h-1l1-2z" style="fill:#dd917e"/><path d="m134 117-1-2z" style="fill:#b8675e"/><path d="m123 114-1-1z" style="fill:#f4c5bb"/><path d="M131 131h-1z" style="fill:#fad0ca"/><path d="M124 128h-1z" style="fill:#f2bcb3"/><path d="M119 97q0-2 0 0" class="st436"/><path d="M123 92q2-2 5-1v-1l5 2 3 1-3 3c-2 3-5-2-8-2h-3z" style="fill:#bd5544"/><path d="m128 90 2 1 4 1q-4 1-7-2l-3 1h-1l1-2zm3 6c-3-2-3-5-9-3l3-1 4 1 1 1 3 1z" style="fill:#dd7c60"/><path d="m129 123-3 2-1-1-2-2-3-5 1-1 3-2h1q3-2 4 1 5 4 0 8" style="fill:#c88a6e"/><path d="m129 123 2-2q1-4-2-6-2-2-4-1h-1l2-1q3 0 5 4l1 4z" style="fill:#f9c3af"/><path d="m126 122-1 1-3-4v-1c2-2 2 2 4 4" style="fill:#561d24"/><path d="m124 119 1 1-1 1z" style="fill:#e2ccc8"/><path d="M126 122h-2z" style="fill:#e4cfcb"/><path d="M123 118h-1z" style="fill:#eddad8"/><path d="M129 120v2h-1v-2z" style="fill:#591b1d"/><path d="m129 121-1-1z" style="fill:#edccc3"/><circle cx="125" cy="116" r="1" style="fill:#5c1b1c"/><circle cx="126" cy="116" r="1" style="fill:#f5d2c3"/><path d="M119 129h-2c-1-2-5-7-4-8l4-2 1-1c1 0 6 7 5 8z" style="fill:#c8866e"/><path d="m122 126-4 2-3-5v-2l3-1h1z" style="fill:#591213"/><path d="m121 126-3 1-3-5 3-2 3 5z" style="fill:#bf7f68"/><path d="m160 100-1 3v1l-3 2h-2l-2 1q1 0 0 0l-2 1-1-1 4-3v-1l1-4z" style="fill:#d0886e"/><path d="m142 121-2 3-1 1-3 4-1 1h-2v-4l1-3 4 1 1-3q2-2 3-1z" style="fill:#b44f40"/><path d="m154 99-1 4h2l-3 2-2 2v1l2-1h1q2 0 0 0v1h-1l-2 2v1-1l-1 2-1-1v-4l1-1 1-2 1-1-1-1h1l1-1 1-1z" style="fill:#6f2028"/><path d="m148 111-1 5-2 2h-1v-3l2-4v-1l2-1h1z" style="fill:#dc7d64"/><path d="M99 99h-4q-2 1-1 3l7 5q4 0 1-2l-3-3v-1l6 1 1-1h3l3-1h2l-2 3q-5 6-8 15l-2-1-5-4-12-10-10-8v-2l4-9h1q7 9 17 14z" style="fill:#e3c0a1"/><path d="m107 101-2 1h-6l4 3v2h-2l-7-5v-2l1-1h6l-4-3v-2h2l4 2 3 3z" style="fill:#812e27"/><path d="M101 106h2v1z" style="fill:#eeaf9c"/><path d="m114 100-7 1-1-1-3-4-4-2q-2-1-1 1l3 3v1h-2l-2-1-6-3-12-11 12-18 3-3 7-7 10-7h2l8 7 13 10 6 6h1l-1 1-7 6-5 5-11 12z" style="fill:#fde8d0"/><path d="M110 71q-2 2-4-1v-1l-3-1q-2-1-2-4l4-4 2 1 6 5v2q0 3-3 3" style="fill:#802e26"/><path d="m107 65-2 1-1-1 1-2z" style="fill:#fde4ce"/><path d="m109 69 1-2 2 2z" style="fill:#fde4d0"/><path d="m106 61-1 1v-1z" style="fill:#f09e8b"/><path d="m113 66-1 2z" style="fill:#e6907c"/><path d="m124 75-1-2q-1 1-4-2-2-3 2-6h3l6 6q2 3-3 5z" style="fill:#832f26"/><path d="m123 71-2-1v-1l1-2 2 2z" style="fill:#fde1ca"/><path d="m128 72-1 2-2-1 1-2z" style="fill:#fddec7"/><path d="M130 72q0 1 0 0l-1-1z" style="fill:#ef9a84"/><path d="m111 93-1-6h-6l-1-1 2-1h5l-3-3v-1l1-1 2 1 2 2 4 3v2h-2l-2-2 1 5v2z" style="fill:#802b26"/><path d="m116 88-1-2h1z" style="fill:#eb9580"/><path d="M108 82h1z" style="fill:#ec9b85"/><path d="m111 79-1-2 2-1 2 1 2-2-1-2v-2l2 1 5 8v2l-2 1z" style="fill:#842f26"/><path d="m119 80-3-2 1-1q2 1 2 3" style="fill:#fce1cc"/><path d="M121 82v-2z" style="fill:#ed9580"/><path d="M111 77v2l-1-1z" style="fill:#e18c7b"/><path d="m116 71-1 1z" style="fill:#e99883"/><path d="m97 89-4 3-1-2 2-2v-1h-1l-2 1q-3 2-5-1v-5l4-2 1 1-1 2-2 1v1c2 2 5-3 7-1q2 2 2 5" style="fill:#822f26"/><path d="M86 83v2z" style="fill:#f6a88f"/><path d="m102 81-2 3-2 1v-2l1-2-6-5-1-1 1-1h2l6 5 1-2h2v2z" style="fill:#7e2d26"/><path d="m93 76 1-1z" style="fill:#e59786"/><path d="m103 71 4 4-1 1q-2 1-2-1l-6-4-1-3h2z" style="fill:#863228"/><path d="m105 76 1-1-1-2 1 2z" style="fill:#ea9985"/><path d="M110 95v1l-2 1-1-1-6-5-1-2h3l3 3z" style="fill:#7e2a24"/><path d="M109 96v-2z" style="fill:#e4907f"/><path d="M142 97h3q2 0 3 2v2l-5 4-1-1-2-2q3-2 1-5z" style="fill:#c18168"/><path d="M160 100h-4l-2-1h-1l-1 3h-3l-4 3h-2v-1l4-3h1v-1q1-2-1-2l-5-1-1 5 1 1v1l-2-1-1-1v-1h-3 1l1-1h-1l-1 1v-2l2-1v-1l-1-2 1 1 1 1 2-1-3-2-1-1q1 0 0 0v-4l1-1 1-2 5-2-2-2h-2v-1l1-1h2v2l2 3q4-1 6 2l2 2v2l-2 2-1 2-4 1h3l3 1 2-1v-4h2v2l1-1 1 1q-1 3-4 2l-3 2-1 2 2 1 1-2q2-2 3-1l4 1z" style="fill:#5b1622"/><path d="M137 93h1q2 4 5 3h-2l-2 1-2-2z" style="fill:#dee4e9"/><path d="m137 101 2-2v1z" style="fill:#eddbdf"/><path d="m148 101-1-3-3-1h-2 5q2 1 2 3z" style="fill:#f4b99e"/><path d="m157 94-2 1h-1l1-3v2z" style="fill:#af6559"/><path d="M152 91v1zv-4l1 2z" style="fill:#b3624f"/><path d="M138 92v-3z" style="fill:#b47f74"/><circle cx="141" cy="81" r="1" style="fill:#cb9b91"/><path d="M140 99h1z" style="fill:#c47f6d"/><path d="M150 98v2z" style="fill:#ebbfb5"/><path d="m138 101 1-1v1z" style="fill:#efc6c7"/><path d="M150 89v4l-1 1-8 1-2-2v-5l1-2h8q3 2 2 3" style="fill:#bc8471"/><path d="M150 89q1-2-1-2l-7-1h-1 9z" style="fill:#f0baa7"/><path d="m149 92-6 1-1-1z" style="fill:#511117"/><circle cx="142" cy="89" r="1" style="fill:#471116"/><circle cx="142" cy="90" r="1" style="fill:#f0dadb"/><circle cx="148" cy="89" r="1" style="fill:#4a1218"/><circle cx="148" cy="89" r="1" style="fill:#efdbdd"/><path d="M165 90v5l1 2 13 9v2l2 5-1 1v1-1l-2 1v3l1 1v-1 1l-1 4h10l-2 1 2 1h3-11l-2-1h-7l-1 1q2 2 1 4l-1 2-3 1q-1 1 1 1l2 3 3 3 1 1 3-1 4 1v1c-3 1 2 2 3 1h1v-1l3 1v1q-2 0-1 1h11-1v-2l8-1v1q1-1 0 0l3 1h1q2 5 7 7h1v1h-1l4-1h2l-1-1 8-4v-1l1 1h-2v1l2-1h1v1l-15 7q-7-2-9-9l-8 1h-1l-4 1v-1h-2q-13-1-24-7-7 8-16 13l-7 1-1 2v1l-1 9-1 2v-1l1-7q-1-2-2 1v-2l1-4c1 3 2 0 2-1q1-3-2-3-1-1 0 0v1l-2-2-4-3q-2-1-2-4h-1l2-2h-2l1-3v-1l2-4 4-6v-1l1-2h2l2-3-1-1 2-3 1-3 1-1 1 1v-2l1 1v1l4-4h-1v-1h-1v-1h3l3-2h1l2-2h1v-1l3-1h-1l-1-2h2l-1-3V85l-1-1-1 1-1-3v-1h1v-2h1l2 6z" style="fill:#561326"/><path d="M142 153v-3l-1-2 3 2v4l-1 1z" class="st129"/><path d="M197 143h2l-2 2h-5l-6-1v-1l2-1zm-12-1-1 1-4-1v-1h1zm36 7-2 1h-5 2v-1zm-36-24h-4z" class="st11"/><path d="M165 93v2-5z" class="st228"/><path d="M194 145h-2zm-8-22h-2zm12 22h-1z" class="st11"/><path d="m162 107-4 4-3 4h1l9-5-4 4h3l1 1q-8 8-14 17l-3 2h-2l2-4 5-7q2-1 1-2l-2 2q-2 1-2-1v-2h-1l-5 8-1-1a77 77 0 0 1 18-20z" style="fill:#a19ea5"/><path d="m151 132-4 8-2 7v1l5-13h2l2 3v1h-2q-3 4-1 6 3 1 2-1l2-2h2l2 1h-1l-8 6q-3 2-8-1l-1-2q1-7 4-12z" style="fill:#837d84"/><path d="m169 109 1 1q5-3 7 2 1 6-3 11l2-8v-2l-1-2-5 1q-11 8-19 20h-1l4-7 3-4 7-6-1-1 1-1 2-1-1-1h-1z" style="fill:#dedde1"/><path d="m169 102-5 1 1 1v1l-3 1h-2l-4 4-5 5-6 7-2 4-1-1 3-5 11-12 6-5q4-3 7-2" style="fill:#e2e0e5"/><path d="M143 127q-5 7-6 15l-2-2v-5l6-10z" style="fill:#827c83"/><path d="m147 130-4 8-2 7-2-1 2-9 6-10 1-1-1 5z" style="fill:#847d84"/><path d="M166 107q2-1 2 1l-3 2-5 2-4 3q0 1 0 0l3-3z" style="fill:#e6e5e9"/><path d="m152 123-1 2-4 5q-1-2 1-5v-1l2-2q0-1 0 0z" style="fill:#b6b0b7"/><path d="m178 112-2-3-5 1-1-1h-1q3-4 7-1z" style="fill:#aaa5ac"/><path d="m168 108-2-1q4-3 6-1z" style="fill:#aea7ae"/><path d="m165 106-1-2 5-1v-1l1 2z" style="fill:#ada8af"/><path d="M164 114h-2l3-3 3 1z" style="fill:#bdbbc1"/><path d="M138 143q-2 0-2-4v-4l1 1q-2 4 1 6" style="fill:#b1a8af"/><path d="m176 111-6 4q-10 7-16 17l-2 3-3 6q-3 3-2 8c-3-1-1-8 1-10l3-7 13-14 5-5z" style="fill:#511323"/><path d="M175 123h-3l-4 2 2 5-4 2h-2v-1c3-4-2-1-1 1l-1 1h-3v-1l-2 1h-2l-1-1v-1c5-7 13-16 21-19l1-1 1 2q1 5-2 10" style="fill:#a49fa6"/><path d="M175 123h-3z" class="st11"/><path d="M174 117c2 0-2 4-3 3s1-4 3-3" style="fill:#501424"/><path d="m166 122-2 4h-1q0-3 3-4" style="fill:#511325"/><path d="m164 132-1 1 3-4q1 2-1 3" style="fill:#541627"/><path d="M164 132h2q-2 0-1 2l1 2-7 7-1-1h-1l-1-1-1-2v-1l-1-1-2-2q-1 0 0 0l1-3h1l1 1h1c-2 4 1 1 2 0l1-1 3 1z" style="fill:#8a868d"/><path d="M159 132v1l-3 3v-3z" style="fill:#501323"/><path d="M162 137c1 0-2 4-3 3q0-2 2-3z" style="fill:#531627"/><path d="m155 139 1 2-1 1-2 3q-4-1-3-3 0-4 4-4" style="fill:#51111e"/><path d="M154 144h-2l2-4 2 2-2 1z" style="fill:#bc6852"/><path d="m140 125-4 6h-1l4-5z" style="fill:#d27259"/><path d="m150 111 1-2 2-1 2-1-6 6z" style="fill:#a1a5af"/><path d="M73 93v2l-2-2-2-1 1-2q4-1 4 2z" style="fill:#b95746"/><path d="m85 67-1 3-1 4-1 2v-3 3h-1l-2-1v-1l-1-1 1-4 1-4h5z" style="fill:#c15b47"/><path d="m82 76-1 2-1-1 1-1zl1-4 1-3v-3q2 0 0 4z" style="fill:#ef9171"/><path d="m79 75 1-4q0-5 2-5l-1 5z" style="fill:#ed8d6e"/><path d="m91 63-4-1v1l-1 2v1-2h-5l-1 6v4q3-1 2 1v1l-1 1h-3l1 2 1 1h-2l1 1-1 1v1l-1 1-2-3 1-1 1-1h1v-1l-1-2v-2l-1 1-1-1v-1h3v-1l1-4q-4-1-3 3h-1v-2 1-3q3-2 4-1l1 1q-1-3 1-5h5l1-2z" class="st208"/><path d="m80 78-2 3-1-2v-4l1 3z" style="fill:#c95e4d"/><path d="m76 73-1-1v-2q1-3 3-1z" style="fill:#c4674f"/><path d="m80 76-2 1z" style="fill:#f0a491"/><path d="M78 74h1v1h-1z" style="fill:#ebada3" transform="rotate(-61 78 75)"/><path d="m77 84 1-1 1-1z" style="fill:#d28f81"/><path d="m76 77-1-1v-1h1z" style="fill:#ca7163"/><path d="M76 74q-1 0 0 0" style="fill:#eab6ae"/><path d="M77 82h-2l1-1z" style="fill:#d28c79"/><path d="m107 49 6-2 4 3 4 4 12 9 8 7 2 2-2 3h-1l-7 6 2 2-1 3 1-3h-5l-2 1-1 1 1 1-2 3h-1l-1 1-1-1-5 7v1l-2 1 1 1 1-1-1 2 1 1h-2l-1 2h-1l-1-1-1 1v-1l2-2a148 148 0 0 1 26-27v-1l-27-23h-2l-9 7Q89 67 80 83l-1 1v1l-3 7-1 3h-2v-2l1-1v-1l-1-2h1l1-1v-2l1-1 1-1 1-2h-1q0-2 2-1l1-3 1-1 1-1 1-2 2-7 1-3v-1 1l1 1 3-1-3 2v2l1-3 2-1h1v-1l1-1-7-2-1 3h-2l-1-3-2-1v-3l-2-1 1-3 1 1 1-1 1 1v6h6l-3-1v-2q-4-3 1-6 1-2 3-2l4 1v-2q-2-3 1-4 4 1 1 4l-1 2 4 1 1 1 1 3 1 1z" class="st436"/><path d="m91 64-3 2v1l-1 2-1-3 3-2-2 1-1-1v-2z" style="fill:#c38677"/><path d="m91 63-4-1h-1l-1 1h-1l1-3h1l6 2z" style="fill:#ca8672"/><path d="M80 53v2q-2 1-2-1v-1l1 1z" style="fill:#c68779"/><path d="m84 55-1-1 1-2 1-1z" style="fill:#be7768"/><circle cx="93" cy="45" r="1" style="fill:#c99583"/><path d="m83 60-1 1z" class="st329"/><path d="m93 61-2-1z" style="fill:#f1d2c8"/><path d="m99 56-1 1z" style="fill:#c9807e"/><path d="m97 56-1 2-1 2-6-2-4-1 1-6q0-1 0 0l2-2 8 3 1 2z" style="fill:#c6836d"/><path d="M97 56v-3l-1-1-8-2-2 1 1-2 9 2 2 3z" style="fill:#f9c9b4"/><path d="M93 56q0 3-2 2-2 0-3-3z" style="fill:#541718"/><path d="m92 57-3-1z" style="fill:#dfaa9c"/><path d="M95 55h-2v-1l1-1 1 1z" style="fill:#4b1315"/><circle cx="94" cy="54" r="1" style="fill:#ebc9bb"/><circle cx="88" cy="53" r="1" style="fill:#491212"/><path d="M89 53h-1v-1z" style="fill:#d4a999"/><path d="m64 86 2 3 2 1q-2 2-5 1l-1-1v-2l-1-1-3-1q0-2 2-2h1l2 2z" style="fill:#b45244"/><path d="m76 85-1 3-2-5 1-1z" style="fill:#8d3839"/><path d="m57 76-3 1v-8h2l1-1 2 1-1 2q-2 1-1 3z" style="fill:#c5e1e6"/><path d="m63 86-2-2 2-1z" style="fill:#d47e64"/><path d="m75 72 1 1h1l-1 1h-2v1l1 1 1 1 1 2-1 1v-2l-2-2-2-2-6 6 2 4 1 1 5-4h1l-1 1-1 1v2l2 2v1l-2 1-2-1-1-1v1l-1-2-2-1-2 1h-1q0 1 0 0h-1v-1l1-1 1-1-1-2-1 2-3 1h-1q-3 2 0 3h2l1 1v2l1 2-2-1-1-3-3-1v-2l2-1 2-1 2-1 1-3 5-4h1l1-1 3-2v-2z" class="st436"/><path d="m70 75-6 4 1-1zq2 0 0 0" style="fill:#9d666b"/><path d="m71 73-1 2h-1z" style="fill:#b57b7e"/><path d="m65 83-1 1v1-1l-1 2v-3l-2 1-3 1 2 2h1-2l-2-2 1-1h2l3-2 1-1z" class="st208"/><path d="m65 83-1-2 1-1zq1 0 0 0" style="fill:#a45b53"/><path d="m73 87-1 1v-1l1-1z" style="fill:#d7a18b"/><path d="m71 87-1-1 2-1v1z" style="fill:#a56861"/><path d="M67 85h-1v-2z" style="fill:#e4c0b8"/><path d="m64 85 1 1z" style="fill:#e9beb2"/><path d="M75 74h-1z" style="fill:#975857"/><path d="m69 64 2 1 1 1 1 3q1 3-2 4l-2 2-5 4h-3q-3 0-4-3v-2q-2-3 1-4 1-1-1-1l-3 1v-3h3l2 1 2-2v-3l-1-1 1-1h1v4h2l3-1z" style="fill:#541a24"/><path d="m72 68-2-3z" style="fill:#c47d6b"/><path d="M61 78q-3 0-3-3z" style="fill:#925450"/><path d="m63 66-3 3z" style="fill:#e8a89b"/><path d="M55 69v-1l1 1z" style="fill:#ae7a77"/><path d="M62 62h-1v-1z" style="fill:#af7b79"/><path d="m71 71-5 5-3 2h-1l-4-5v-1l2-2 7-5 1 1z" style="fill:#c1836d"/><path d="m71 71-3-3-1-2-7 6-2 2v-1l3-3 5-4h1l5 5z" style="fill:#f7bca6"/><path d="m68 73-3 3q-2 0-1-2l3-3z" style="fill:#45161c"/><path d="M67 73h1z" style="fill:#e3d7d5"/><path d="M66 74h1z" style="fill:#e6dcdb"/><path d="m65 75 1-1z" style="fill:#dfd0d1"/><path d="m68 69-1 1-1-1v-2h2z" style="fill:#471317"/><circle cx="67" cy="68" r="1" style="fill:#ead8d3"/><circle cx="61" cy="73" r="1" style="fill:#481519"/><path d="m62 74-1-1z" style="fill:#dabcb5"/><path d="m76 80-1 1-5 4-2-1-3-4v-1l7-5 1 1 3 3z" style="fill:#be8472"/><path d="M71 82h-2l-2-2v-1l5-3 2 3z" style="fill:#4c1a1f"/><path d="m70 78-1 4-1-2 4-4 2 3-2 1z" style="fill:#b09390"/><path d="m72 80-2 2v-3z" style="fill:#aa9291"/></svg>